<svg width="646" height="620" viewBox="0 0 646 620" fill="none" xmlns="http://www.w3.org/2000/svg">
<path d="M364.562 616.415C339.342 604.478 329.292 576.099 325.737 549.665C325.137 545.276 323.879 540.712 325.313 536.499C326.746 532.286 331.164 528.848 335.407 530.033C338.932 531.013 340.995 534.553 343.35 537.347C346.483 541.117 350.623 543.917 355.287 545.422C358.33 546.402 361.943 546.71 364.445 544.72C367.868 541.985 367.37 536.689 366.668 532.33C365.235 524.245 363.83 516.16 362.455 508.075C361.464 503.761 361.173 499.316 361.592 494.909C362.236 490.521 364.591 486.132 368.541 484.318C372.49 482.504 378.035 483.982 379.629 488.107C380.099 489.881 380.451 491.684 380.682 493.505C381.107 495.304 382.292 497.162 384.091 497.382C385.89 497.601 387.456 496.065 388.553 494.558C392.298 489.394 394.404 483.206 396.306 477.077C398.208 470.948 399.992 464.701 403.269 459.201C406.546 453.7 411.549 448.961 417.737 447.498C423.925 446.035 431.239 448.814 433.829 454.68C436.418 460.547 433.916 467.407 430.903 473.054C426.326 481.415 420.567 489.072 413.802 495.787C412.453 496.862 411.48 498.337 411.022 500C410.569 503.072 413.816 505.501 416.874 505.969C420.297 506.495 423.779 505.559 427.246 505.384C430.713 505.208 434.648 506.086 436.491 509.085C439.022 513.239 436.081 518.549 432.936 522.25C426.619 529.624 419.083 535.859 410.657 540.683C407.643 542.394 404.439 544.003 402.231 546.695C400.022 549.387 399.129 553.57 401.207 556.379C403.284 559.188 407.482 559.495 410.73 558.295C413.977 557.096 416.684 554.77 419.683 553.029C425.3 549.752 433.112 548.845 437.837 553.38C439.31 554.966 440.396 556.872 441.008 558.949C441.619 561.025 441.741 563.215 441.362 565.347C440.584 569.592 438.957 573.637 436.579 577.24C429.003 590.263 418.11 601.044 405.01 608.487C391.917 615.655 379.249 619.151 364.576 616.43" fill="#F5F5F5"/>
<path d="M368.555 598.773C370.495 583.718 373.299 568.787 376.952 554.053L379.761 542.453C380.682 538.635 381.604 534.86 382.687 531.232C384.874 524.27 387.443 517.433 390.381 510.752C393.146 504.345 395.999 498.347 398.705 492.774C401.411 487.2 404.059 482.051 406.663 477.472C410.728 470.21 415.365 463.283 420.531 456.758C422.36 454.446 423.837 452.706 424.847 451.535C425.329 450.979 425.724 450.541 426.002 450.204C426.28 449.868 426.412 449.765 426.426 449.78C426.32 449.949 426.203 450.11 426.075 450.263L424.964 451.638C423.998 452.837 422.564 454.563 420.78 456.948C415.727 463.537 411.174 470.495 407.16 477.765C404.6 482.358 401.997 487.507 399.305 493.081C396.613 498.654 393.804 504.652 391.069 511.059C388.156 517.74 385.616 524.577 383.462 531.54C382.336 535.153 381.429 538.854 380.536 542.716L377.728 554.331C374.082 569.034 371.264 583.93 369.287 598.949" fill="#E0E0E0"/>
<path d="M382.935 531.174C382.618 530.605 382.368 530.001 382.189 529.375C381.75 528.219 381.18 526.449 380.507 524.386C379.161 520.144 377.493 514.219 375.679 507.695C373.866 501.17 372.125 495.275 370.706 491.077C370.004 488.97 369.418 487.259 369.009 486.103C368.763 485.502 368.572 484.88 368.438 484.245C368.791 484.791 369.081 485.375 369.301 485.986C369.813 487.112 370.472 488.795 371.247 490.872C372.812 495.056 374.641 500.922 376.469 507.475C378.298 514.029 379.834 519.764 381.063 524.211C381.633 526.229 382.101 527.926 382.526 529.287C382.717 529.903 382.854 530.534 382.935 531.174Z" fill="#E0E0E0"/>
<path d="M437.281 511.191C436.574 511.486 435.839 511.707 435.087 511.849C433.624 512.215 431.62 512.742 429.103 513.473C424.057 514.936 417.166 517.101 409.662 519.881C402.157 522.66 395.472 525.483 390.645 527.648C388.245 528.716 386.329 529.638 384.998 530.267C384.329 530.631 383.629 530.935 382.906 531.174C383.511 530.708 384.163 530.305 384.852 529.974C386.139 529.258 388.026 528.263 390.396 527.049C395.121 524.737 401.792 521.826 409.311 519.032C415.728 516.631 422.266 514.566 428.899 512.844C431.444 512.171 433.521 511.732 434.97 511.454C435.73 511.295 436.504 511.207 437.281 511.191Z" fill="#E0E0E0"/>
<path d="M369.067 597.647C368.88 597.455 368.713 597.244 368.57 597.018L367.268 595.16C366.142 593.521 364.576 591.137 362.689 588.153C358.886 582.184 353.912 573.773 348.543 564.41C343.175 555.048 338.303 546.607 334.602 540.58L330.214 533.427L329.043 531.481C328.889 531.266 328.765 531.029 328.677 530.779C328.677 530.779 328.868 530.969 329.175 531.393C329.482 531.818 329.965 532.505 330.477 533.266C331.603 534.89 333.168 537.274 335.07 540.273C338.859 546.241 343.847 554.638 349.216 564.001C354.585 573.363 359.456 581.804 363.143 587.845L367.531 594.984C367.999 595.76 368.394 596.447 368.702 596.93C368.859 597.149 368.982 597.391 369.067 597.647Z" fill="#E0E0E0"/>
<path d="M439.548 561.002C439.343 561.182 439.111 561.33 438.861 561.441L436.827 562.523L429.279 566.458C422.901 569.794 414.153 574.49 404.498 579.624C394.843 584.759 386.051 589.455 379.629 592.644C376.411 594.238 373.778 595.569 371.964 596.345L369.769 597.31C369.529 597.438 369.273 597.536 369.009 597.603C369.218 597.427 369.449 597.28 369.696 597.164L371.744 596.081L379.293 592.132C385.656 588.811 394.404 584.115 404.059 578.966C413.714 573.817 422.521 569.15 428.928 565.961C432.146 564.366 434.779 563.035 436.593 562.26L438.7 561.294C438.966 561.154 439.252 561.055 439.548 561.002Z" fill="#E0E0E0"/>
<path d="M181.644 302.41C181.644 302.41 164.266 304.824 174.023 342.888C183.78 380.952 192.06 400.584 192.06 400.584C192.06 400.584 193.362 409.2 186.413 408.937C179.465 408.673 165.29 403.085 160.477 410.531C155.503 418.314 159.862 427.676 170.717 437.492C181.571 447.308 204.714 469.675 206.791 471.708C208.868 473.742 210.39 477.925 205.621 478.496C200.852 479.067 167.03 475.102 166.123 491.267C165.216 507.432 200.077 529.784 203.836 532.3C207.596 534.816 208.225 536.777 207.347 538.971C206.469 541.165 195.264 538.752 185.594 538.006C175.925 537.259 164.573 538.123 164.821 547.485C165.07 556.847 183.385 580.546 236.78 598.159L262.073 604.698L280.754 586.295C318.35 544.471 322.46 514.819 318.028 506.568C313.595 498.318 303.399 503.219 295.295 508.66C287.19 514.102 278.706 521.826 276.892 520.363C275.078 518.9 274.61 516.882 276.629 512.83C278.647 508.777 297.796 472.059 288.961 458.484C280.125 444.909 252.74 465.125 248.351 466.983C243.963 468.841 243.173 464.423 243.963 461.673C244.753 458.923 253.676 428.027 258.27 414.057C262.863 400.086 261.985 389.817 253.793 385.545C245.894 381.435 236.4 393.372 230.49 397.058C224.58 400.744 221.449 392.669 221.449 392.669C221.449 392.669 218.874 371.531 208.43 333.643C197.985 295.754 181.323 302.542 181.323 302.542" fill="#EBEBEB"/>
<path d="M262.058 610.988C254.495 583.194 241.871 533.456 230.826 490.755C219.781 448.054 209.746 409.551 202.315 381.669C198.599 367.742 195.586 356.478 193.538 348.652C192.514 344.775 191.709 341.747 191.153 339.67L190.539 337.329C190.407 336.802 190.363 336.525 190.363 336.525C190.363 336.525 190.466 336.773 190.626 337.3C190.787 337.826 191.007 338.631 191.299 339.626C191.899 341.703 192.762 344.702 193.845 348.564C196.039 356.332 199.14 367.581 202.915 381.508C210.478 409.302 220.615 447.937 231.66 490.55C242.705 533.163 255.227 582.945 262.658 610.827" fill="#E0E0E0"/>
<path d="M179.991 419.221C180.576 419.461 181.134 419.76 181.659 420.113C182.698 420.727 184.19 421.664 186.048 422.834C189.69 425.189 194.649 428.568 200.047 432.386L213.828 442.217L218.026 445.143C218.555 445.472 219.046 445.859 219.489 446.298C218.899 446.06 218.335 445.761 217.807 445.406C216.768 444.791 215.276 443.855 213.418 442.67C209.805 440.286 204.889 436.819 199.492 433.015L185.638 423.287L181.425 420.362C180.908 420.033 180.427 419.651 179.991 419.221Z" fill="#E0E0E0"/>
<path d="M221.61 445.084C221.42 444.967 227.93 434.449 236.136 421.59C244.343 408.732 251.175 398.404 251.365 398.521C251.555 398.638 245.045 409.171 236.824 422.029C228.603 434.888 221.8 445.172 221.61 445.084Z" fill="#E0E0E0"/>
<path d="M235.624 511.323C236.029 510.818 236.496 510.365 237.014 509.977L240.949 506.525C244.27 503.599 248.849 499.561 253.735 494.909C258.621 490.257 262.921 485.913 265.993 482.738C267.456 481.275 268.656 479.973 269.636 478.979C270.079 478.488 270.569 478.042 271.099 477.648C270.775 478.207 270.382 478.723 269.929 479.184C269.139 480.134 267.954 481.48 266.462 483.119C263.536 486.41 259.264 490.843 254.349 495.495C249.434 500.146 244.811 504.155 241.388 506.963C239.662 508.426 238.257 509.48 237.263 510.226C236.759 510.651 236.209 511.019 235.624 511.323Z" fill="#E0E0E0"/>
<path d="M192.835 496.211C193.426 496.282 194.006 496.424 194.562 496.636L199.199 498.098C203.09 499.342 208.459 501.112 214.369 503.101C220.279 505.091 225.618 506.963 229.466 508.353L234.015 510.021C234.582 510.198 235.126 510.438 235.639 510.738C235.048 510.678 234.468 510.54 233.913 510.328L229.275 508.865C225.384 507.622 220.016 505.852 214.106 503.847C208.196 501.843 202.856 499.986 199.009 498.61L194.459 496.928C193.888 496.763 193.342 496.522 192.835 496.211Z" fill="#E0E0E0"/>
<path d="M197.78 556.262C198.533 556.375 199.273 556.561 199.989 556.818L205.928 558.632C210.931 560.197 217.821 562.406 225.428 564.908C233.035 567.409 239.896 569.691 244.855 571.403L250.707 573.451C251.435 573.684 252.144 573.972 252.828 574.314C252.07 574.203 251.325 574.016 250.604 573.758L244.665 571.944C239.662 570.379 232.772 568.17 225.165 565.668C217.558 563.167 210.697 560.87 205.753 559.173L199.901 557.111C199.17 556.892 198.46 556.608 197.78 556.262Z" fill="#E0E0E0"/>
<path d="M251.628 573.509C252.143 572.877 252.716 572.294 253.34 571.769L258.182 567.219C262.263 563.372 267.881 558.032 273.922 551.961C279.964 545.89 285.303 540.258 289.136 536.162L293.671 531.306C294.205 530.685 294.787 530.108 295.412 529.579C294.986 530.267 294.496 530.914 293.949 531.51C292.954 532.725 291.462 534.436 289.56 536.543C285.83 540.756 280.564 546.461 274.493 552.532C268.422 558.603 262.79 563.898 258.577 567.643C256.47 569.501 254.759 571.008 253.544 572.032C252.948 572.577 252.307 573.071 251.628 573.509Z" fill="#E0E0E0"/>
<path d="M106.16 75.4169L91.8828 71.0283C91.8828 71.0283 88.1378 83.0239 75.6157 79.3521C73.1914 78.6845 71.0346 77.2799 69.4438 75.3326C67.8529 73.3853 66.9067 70.9916 66.7361 68.4829C66.5486 66.3674 66.869 64.2376 67.6704 62.2708C68.4719 60.304 69.7314 58.5569 71.3441 57.175C75.0159 53.9274 81.4525 51.9525 90.537 56.6483L100.587 24.4652L86.4702 20.0766L80.6187 38.933C80.6187 38.933 59.2023 37.8651 52.4 59.6765C45.8902 80.5516 63.0935 91.2452 71.11 93.7467C77.1956 95.6484 98.5681 100.681 106.16 75.4169Z" fill="#F5F5F5"/>
<path d="M88.3824 13.3781L102.71 17.8489L106.885 4.47083L92.5569 1.51296e-05L88.3824 13.3781Z" fill="#F5F5F5"/>
<path d="M145.555 39.0793L151.275 37.6164C151.101 36.9668 151.058 36.2888 151.151 35.6225C151.244 34.9563 151.469 34.3155 151.815 33.7383C152.16 33.161 152.618 32.659 153.161 32.2622C153.704 31.8655 154.321 31.5819 154.976 31.4285C155.929 31.1408 156.948 31.1566 157.892 31.4737C158.835 31.7909 159.657 32.3937 160.243 33.1985C160.74 33.8669 161.072 34.6433 161.212 35.4645C161.352 36.2857 161.295 37.1284 161.047 37.9236C160.506 39.7815 158.765 41.8002 154.728 42.1367L158.136 55.0246L163.783 53.5617L161.793 46.0133C163.935 44.7217 165.592 42.7617 166.509 40.4354C167.426 38.109 167.553 35.5455 166.87 33.14C164.675 24.7724 156.629 24.8163 153.455 25.6501C150.997 26.2207 142.791 29.0147 145.555 39.0793Z" fill="#EBEBEB"/>
<path d="M165.775 55.4412L160.014 56.9854L161.456 62.3633L167.217 60.8191L165.775 55.4412Z" fill="#EBEBEB"/>
<path d="M617.784 187.136L623.343 189.14C623.576 188.511 623.933 187.935 624.393 187.445C624.852 186.956 625.405 186.563 626.018 186.29C626.632 186.018 627.293 185.871 627.965 185.858C628.636 185.845 629.303 185.966 629.926 186.215C630.863 186.516 631.683 187.099 632.275 187.885C632.867 188.671 633.201 189.62 633.232 190.603C633.267 191.442 633.102 192.278 632.751 193.04C632.4 193.803 631.873 194.472 631.213 194.992C629.751 196.206 627.132 196.864 623.621 194.846L619.072 207.382L624.572 209.372L627.234 202.058C629.731 202.212 632.21 201.543 634.289 200.153C636.369 198.763 637.935 196.729 638.747 194.363C641.673 186.229 635.075 181.709 631.96 180.583C629.575 179.646 621.237 177.291 617.784 187.136Z" fill="#EBEBEB"/>
<path d="M623.749 211.913L618.165 209.891L616.277 215.104L621.861 217.126L623.749 211.913Z" fill="#EBEBEB"/>
<path d="M27.8384 250.8L39.5413 246.265C39.5413 246.265 35.7379 236.391 45.9341 232.251C47.8855 231.426 50.045 231.226 52.1149 231.679C54.1847 232.132 56.063 233.216 57.4907 234.782C58.7054 236.084 59.5956 237.654 60.0888 239.365C60.5819 241.075 60.6641 242.878 60.3287 244.627C59.5973 248.694 56.379 253.404 47.9089 255.028L58.149 281.55L69.852 277.073L63.8542 261.538C63.8542 261.538 78.4829 251.034 71.6221 233.041C64.966 215.838 47.9382 217.798 41.3992 220.329C36.3523 222.274 19.6171 230.13 27.8384 250.8Z" fill="#F5F5F5"/>
<path d="M72.0691 282.472L60.2613 287.021L64.5107 298.051L76.3185 293.502L72.0691 282.472Z" fill="#F5F5F5"/>
<path d="M622.363 295.433L614.025 298.636C614.025 298.636 616.716 305.643 609.49 308.569C608.106 309.147 606.578 309.286 605.113 308.967C603.647 308.648 602.316 307.886 601.298 306.784C600.437 305.862 599.807 304.748 599.459 303.536C599.111 302.323 599.054 301.045 599.294 299.807C599.82 296.881 602.102 293.604 608.071 292.492L600.903 273.636L592.652 276.81L596.895 287.826C593.892 290.123 591.727 293.343 590.733 296.99C589.74 300.638 589.972 304.511 591.394 308.013C596.09 320.199 608.115 318.824 612.796 317.024C616.336 315.635 628.185 310.076 622.363 295.433Z" fill="#F5F5F5"/>
<path d="M591.02 272.989L599.388 269.765L596.379 261.957L588.012 265.181L591.02 272.989Z" fill="#F5F5F5"/>
<path d="M645.915 618.917C645.915 619.136 501.311 619.297 322.972 619.297C144.634 619.297 0 619.136 0 618.917C0 618.697 144.575 618.536 322.972 618.536C501.369 618.536 645.915 618.712 645.915 618.917Z" fill="#263238"/>
<path d="M92.7606 580.926C94.2235 575.543 90.6102 570.145 86.6604 566.297C82.7107 562.45 77.9856 558.91 75.923 553.746C72.5876 545.378 77.064 534.553 71.3881 527.575C68.0381 523.479 62.0403 522.104 59.0707 517.715C57.6977 515.297 56.7897 512.642 56.3937 509.889C53.2371 495.991 46.4008 483.198 36.601 472.849C35.9404 485.229 38.6235 497.558 44.3689 508.543C46.6656 512.932 49.5035 517.203 50.2203 522.104C51.4638 530.047 47.0167 538.196 48.9769 546.037C51.2151 554.96 61.2358 560.943 61.7039 570.13C62.1135 577.898 55.3404 584.759 55.8524 592.483C56.2626 595.791 57.4617 598.951 59.3487 601.699C65.3464 611.69 74.1821 618.566 87.5528 618.346L103.937 618.917L92.7606 580.926Z" fill="#FF725E"/>
<g opacity="0.3">
<path d="M92.7606 580.926C94.2235 575.543 90.6102 570.145 86.6604 566.297C82.7107 562.45 77.9856 558.91 75.923 553.746C72.5876 545.378 77.064 534.553 71.3881 527.575C68.0381 523.479 62.0403 522.104 59.0707 517.715C57.6977 515.297 56.7897 512.642 56.3937 509.889C53.2371 495.991 46.4008 483.198 36.601 472.849C35.9404 485.229 38.6235 497.558 44.3689 508.543C46.6656 512.932 49.5035 517.203 50.2203 522.104C51.4638 530.047 47.0167 538.196 48.9769 546.037C51.2151 554.96 61.2358 560.943 61.7039 570.13C62.1135 577.898 55.3404 584.759 55.8524 592.483C56.2626 595.791 57.4617 598.951 59.3487 601.699C65.3464 611.69 74.1821 618.566 87.5528 618.346L103.937 618.917L92.7606 580.926Z" fill="black"/>
</g>
<path d="M107.243 619.253C108.744 619.485 110.273 619.455 111.763 619.165C113.573 618.89 115.351 618.44 117.073 617.82C119.452 616.993 121.676 615.777 123.656 614.221C124.848 613.263 125.778 612.02 126.363 610.608C126.852 609.025 127.108 607.379 127.123 605.722C127.156 603.951 127.288 602.183 127.518 600.426C127.827 598.556 128.503 596.766 129.508 595.16C131.439 591.766 134.657 588.548 135.681 583.94C136.705 579.332 136.003 574.504 135.242 569.589C134.482 564.674 133.779 559.349 135.623 554.199C137.466 549.05 140.977 544.442 142.776 538.678C144.575 532.915 143.727 526.566 144.107 520.378C144.22 517.235 144.945 514.144 146.243 511.279C147.56 508.353 149.403 505.647 150.836 502.604C153.762 496.431 154.26 489.438 155.05 482.577C155.445 479.125 155.825 475.629 156.22 472.118C156.469 468.568 157.082 465.054 158.048 461.629C159.158 458.177 160.467 454.792 161.969 451.491C162.742 449.784 163.378 448.019 163.871 446.21C164.146 444.339 164.322 442.454 164.397 440.564C164.572 436.779 164.425 432.986 163.958 429.227C163.52 425.452 162.832 421.707 162.422 417.919C162.422 417.684 162.422 417.465 162.422 417.26L162.335 416.514L161.676 416.836C158.218 418.611 155.214 421.159 152.899 424.282C150.629 427.34 148.802 430.704 147.472 434.273C144.736 441.31 143.756 448.683 142.381 455.719C141.006 462.755 139.251 469.675 135.652 475.526C133.853 478.452 131.673 481.115 129.8 483.952C127.767 486.722 126.378 489.911 125.734 493.286C124.754 500.22 128.572 506.305 127.782 512.449C127.425 515.459 126.428 518.357 124.856 520.948C123.393 523.567 121.623 525.995 119.955 528.424C118.265 530.806 116.796 533.337 115.567 535.987C114.41 538.58 113.726 541.359 113.548 544.193C113.153 549.723 113.928 554.96 113.548 559.905C113.091 564.617 111.715 569.195 109.496 573.378C107.521 577.401 105.312 581.043 103.469 584.583C102.547 586.339 101.684 588.065 100.982 589.806C100.317 591.477 99.8272 593.212 99.519 594.984C99.0294 598.078 98.99 601.227 99.402 604.332C99.8318 608.662 101.452 612.789 104.083 616.254C104.485 616.778 104.931 617.268 105.414 617.717C105.737 618.056 106.095 618.36 106.482 618.624C107.097 619.078 107.419 619.283 107.419 619.283C106.249 618.358 105.185 617.308 104.244 616.152C101.733 612.674 100.215 608.578 99.8555 604.303C99.483 601.237 99.552 598.133 100.06 595.087C100.368 593.357 100.859 591.666 101.523 590.04C102.264 588.28 103.099 586.561 104.025 584.89C105.883 581.38 108.106 577.752 110.125 573.699C112.41 569.451 113.832 564.793 114.309 559.992C114.748 554.945 113.987 549.679 114.396 544.296C114.585 541.553 115.253 538.864 116.371 536.352C117.608 533.758 119.077 531.28 120.76 528.95C122.428 526.522 124.198 524.094 125.719 521.417C127.389 518.727 128.457 515.708 128.85 512.566C129.64 506.027 125.851 499.912 126.831 493.461C127.472 490.234 128.816 487.187 130.766 484.538C132.624 481.744 134.818 479.081 136.617 476.082C140.348 470.07 142.147 463.019 143.508 455.953C144.868 448.887 145.877 441.573 148.569 434.668C149.864 431.198 151.642 427.928 153.85 424.955C156.077 421.958 158.965 419.515 162.291 417.816L161.545 417.392C161.545 417.611 161.545 417.831 161.618 418.065C162.027 421.898 162.715 425.642 163.081 429.387C163.543 433.089 163.685 436.823 163.505 440.549C163.431 442.38 163.265 444.206 163.008 446.02C162.535 447.77 161.918 449.478 161.164 451.126C159.655 454.461 158.336 457.88 157.215 461.366C156.24 464.844 155.622 468.412 155.371 472.015C154.991 475.541 154.596 479.037 154.216 482.49C153.426 489.38 152.914 496.255 150.12 502.209C148.657 505.135 146.901 507.929 145.541 510.913C144.202 513.885 143.457 517.091 143.347 520.349C142.981 526.668 143.8 532.856 142.089 538.444C140.377 544.033 136.822 548.684 135.023 553.965C133.224 559.246 133.882 564.835 134.672 569.735C135.462 574.636 136.252 579.463 135.198 583.808C134.145 588.153 131.132 591.4 129.171 594.882C128.138 596.558 127.447 598.423 127.138 600.368C126.917 602.144 126.8 603.932 126.787 605.722C126.789 607.337 126.553 608.944 126.085 610.491C125.543 611.831 124.673 613.013 123.554 613.928C121.627 615.482 119.457 616.708 117.132 617.556C115.432 618.211 113.674 618.701 111.88 619.019C110.784 619.218 109.673 619.326 108.56 619.341C107.638 619.253 107.243 619.253 107.243 619.253Z" fill="#263238"/>
<path d="M158.999 426.301C158.921 426.458 158.867 426.625 158.838 426.798L158.487 428.261C158.165 429.563 157.77 431.509 157.156 433.937C156.542 436.365 155.035 439.116 153.762 442.495C152.272 446.299 150.973 450.176 149.871 454.11C148.613 458.499 147.516 463.326 146.345 468.534C145.351 474.081 143.588 479.462 141.108 484.523C139.763 487.185 138.183 489.877 137.056 492.832C135.875 495.85 135.084 499.006 134.701 502.224C133.869 508.888 132.687 515.505 131.161 522.046C127.884 535.46 124.753 548.246 121.901 559.89C119.048 571.534 116.357 581.95 114.133 590.757C111.91 599.563 110.227 606.585 108.998 611.602C108.428 614.002 107.974 615.889 107.653 617.278C107.521 617.878 107.404 618.361 107.316 618.741C107.3 618.912 107.3 619.083 107.316 619.253C107.401 619.102 107.465 618.939 107.506 618.771C107.609 618.376 107.755 617.907 107.931 617.308C108.296 615.947 108.808 614.06 109.467 611.676C110.783 606.702 112.641 599.636 114.938 590.932C117.234 582.228 119.911 571.695 122.91 560.124C125.909 548.553 128.952 535.68 132.258 522.25C133.775 515.692 134.927 509.055 135.71 502.37C136.084 499.229 136.851 496.148 137.992 493.198C139.148 490.272 140.626 487.654 141.971 484.962C144.897 479.622 146.053 473.888 147.209 468.724C148.364 463.56 149.388 458.674 150.588 454.315C151.787 449.955 153.045 446.064 154.303 442.7C155.562 439.335 156.951 436.556 157.551 434.039C158.151 431.523 158.429 429.651 158.692 428.305C158.79 427.7 158.877 427.213 158.955 426.842C158.999 426.476 159.029 426.301 158.999 426.301Z" fill="#263238"/>
<path d="M110.139 619.326C120.833 612.963 123.905 593.653 119.443 582.038C114.982 570.423 107.17 559.802 105.97 547.412C105.034 537.888 108.165 528.116 105.97 518.813C102.971 506.247 90.7125 496.518 90.8588 483.601C90.932 476.36 95.0573 469.543 94.7208 462.302C94.3258 453.437 87.5089 446.386 83.2958 438.574C76.8299 426.593 76.4057 412.447 74.1967 399.077C71.9878 385.706 66.8824 371.282 54.9746 364.685C53.2192 376.08 50.2203 383.892 51.1566 399.325C51.5076 404.87 57.9443 415.417 58.822 427.632C59.3486 434.946 59.6997 442.173 60.1532 449.429C60.6067 456.685 61.0456 463.706 63.5763 470.319C65.5219 475.395 68.6378 480.003 70.0861 485.24C72.7924 495.085 69.223 505.72 71.4173 515.726C73.2751 524.181 79.1266 531.452 80.3262 540.024C81.9938 552.064 74.2114 564.586 78.1904 576.069C80.1799 581.775 84.8611 586.309 86.1923 592.234C87.2309 596.798 86.1045 601.64 87.0407 606.219C88.5036 613.621 102.635 619.385 110.169 618.902" fill="#FF725E"/>
<path d="M57.9004 375.934C57.8804 376.148 57.8804 376.364 57.9004 376.578C57.9004 377.061 58.0467 377.675 58.1345 378.45C58.3832 380.103 58.6611 382.517 59.217 385.648C59.7729 388.778 61.4406 392.318 62.7279 396.59C64.0152 400.861 65.4488 405.747 66.6484 411.219C67.8479 416.69 68.9012 422.79 69.9691 429.329C71.037 435.868 72.2073 442.992 75.4548 449.809C76.9177 453.218 78.6439 456.641 79.8434 460.298C81.0725 464.041 81.8293 467.924 82.0963 471.855C82.6943 480.195 83.7443 488.497 85.2414 496.723C88.5183 513.605 91.6342 529.682 94.4721 544.325C97.3101 558.968 100.163 572.032 102.445 583.091C104.727 594.15 106.599 602.986 107.901 609.218L109.364 616.313C109.54 617.074 109.671 617.673 109.788 618.141C109.828 618.356 109.887 618.567 109.964 618.771C109.99 618.557 109.99 618.341 109.964 618.127C109.876 617.644 109.774 617.044 109.642 616.269C109.32 614.572 108.867 612.173 108.296 609.13C107.067 602.884 105.371 593.96 103.162 582.945C100.953 571.929 98.3341 558.72 95.423 544.135C92.5119 529.55 89.5715 513.415 86.2801 496.548C84.782 488.321 83.7272 480.019 83.1203 471.679C82.8419 467.667 82.0604 463.706 80.7943 459.888C79.4924 456.173 77.7808 452.735 76.2741 449.341C73.0557 442.626 71.8854 435.619 70.7737 429.109C69.6619 422.6 68.594 416.485 67.3213 410.985C66.0486 405.484 64.6589 400.569 63.2253 396.356C61.7916 392.143 60.1971 388.573 59.5535 385.516C58.9098 382.459 58.6026 380.001 58.2954 378.377C58.1491 377.616 58.0321 377.002 57.9443 376.519C57.9412 376.324 57.9266 376.128 57.9004 375.934Z" fill="#263238"/>
<path d="M573.796 70.3408H567.944C567.948 71.0044 567.819 71.6622 567.565 72.275C567.31 72.8879 566.935 73.4433 566.461 73.9085C565.988 74.3737 565.426 74.7391 564.809 74.9832C564.192 75.2272 563.532 75.3448 562.868 75.3292C561.888 75.3643 560.922 75.0929 560.104 74.5527C559.286 74.0125 558.657 73.2305 558.304 72.3157C557.996 71.5539 557.872 70.73 557.943 69.9113C558.015 69.0926 558.279 68.3024 558.714 67.6052C559.708 65.9668 561.873 64.4893 565.794 65.1769V52.011H560.045V59.7057C557.686 60.4002 555.62 61.8496 554.164 63.8315C552.708 65.8134 551.942 68.2183 551.984 70.6772C551.984 79.1911 559.621 81.166 562.897 81.166C565.399 81.2245 573.913 80.6248 573.796 70.3408Z" fill="#FF725E"/>
<path d="M560.001 49.3486H565.838V43.8921H560.001V49.3486Z" fill="#FF725E"/>
<path d="M605.701 62.5583C605.721 62.31 605.721 62.0605 605.701 61.8122C605.701 61.2856 605.701 60.5688 605.701 59.6472C605.701 59.1791 605.701 58.6378 605.628 58.0527C605.555 57.4675 605.467 56.8238 605.365 56.1509C605.262 55.478 605.16 54.6881 605.043 53.9127L604.428 51.4259C603.342 47.1431 601.563 43.0665 599.162 39.3572C595.676 33.8638 590.977 29.2429 585.425 25.8498C579.874 22.4566 573.619 20.3815 567.14 19.784C565.194 19.6122 563.239 19.5731 561.288 19.667C560.308 19.667 559.299 19.667 558.363 19.8571L555.349 20.3106C551.214 21.0791 547.213 22.4441 543.471 24.3628C539.564 26.4302 535.972 29.046 532.806 32.1306C529.565 35.416 526.855 39.1867 524.775 43.3069C522.537 47.5547 521.071 52.166 520.445 56.9263C520.262 58.1323 520.16 59.3492 520.138 60.5688C520.04 61.7902 520.016 63.0163 520.065 64.2406C520.383 72.0881 522.836 79.7001 527.16 86.2568V85.8033C525.126 90.8794 523.122 95.8678 521.162 100.725L520.811 101.617L521.732 101.354L537.678 96.965L537.297 96.8772C542.667 100.943 548.923 103.68 555.554 104.864C558.63 105.438 561.764 105.629 564.887 105.435C566.393 105.413 567.895 105.271 569.378 105.011L571.558 104.674C572.275 104.543 573.021 104.323 573.664 104.162C583.49 101.672 592.109 95.7657 597.977 87.5002C600.166 84.4553 601.923 81.1226 603.2 77.5966C603.478 76.8213 603.741 76.1337 603.99 75.373C604.238 74.6123 604.37 73.9102 604.531 73.2519C604.692 72.5936 604.867 71.9207 605.014 71.3063C605.16 70.6919 605.204 70.0921 605.291 69.5216C605.423 68.3951 605.628 67.4004 605.672 66.5958C605.716 65.7912 605.672 65.0159 605.672 64.4015C605.672 63.7871 605.672 63.4068 605.672 63.0703C605.672 62.7338 605.672 62.6168 605.672 62.6168C605.649 62.7671 605.649 62.92 605.672 63.0703C605.672 63.4068 605.672 63.8456 605.569 64.4015C605.467 64.9574 605.482 65.7327 605.423 66.5812C605.365 67.4297 605.145 68.4244 604.97 69.5069C603.574 77.6033 599.858 85.1204 594.272 91.1451C588.686 97.1698 581.471 101.443 573.503 103.446C572.816 103.606 572.128 103.811 571.426 103.943L569.276 104.265C567.825 104.507 566.358 104.639 564.887 104.66C561.822 104.821 558.748 104.62 555.729 104.06C549.254 102.868 543.147 100.178 537.897 96.2043L537.722 96.058H537.502L521.542 100.447L522.098 101.076L528.11 86.169L528.198 85.935L528.067 85.7155C525.186 81.3573 523.142 76.5007 522.04 71.394C521.534 69.0249 521.231 66.6171 521.133 64.1967C521.084 63.0017 521.108 61.8047 521.206 60.6127C521.215 59.4221 521.313 58.2339 521.498 57.0579C522.06 52.4092 523.442 47.8971 525.58 43.7312C527.613 39.7045 530.252 36.0141 533.406 32.7889C536.504 29.7607 540.022 27.1939 543.851 25.1674C547.51 23.2642 551.428 21.9088 555.481 21.1445L558.407 20.691C559.387 20.5447 560.367 20.5593 561.332 20.4862C563.239 20.3955 565.15 20.4297 567.052 20.5886C573.424 21.1464 579.586 23.1489 585.069 26.4441C590.551 29.7393 595.211 34.2405 598.694 39.6059C601.108 43.2505 602.916 47.2619 604.048 51.4844L604.706 53.942C604.838 54.7173 604.955 55.4049 605.072 56.1363C605.189 56.8677 605.277 57.4529 605.379 58.038C605.482 58.6232 605.452 59.1498 605.496 59.6179C605.496 60.5249 605.613 61.2417 605.657 61.7684C605.629 62.0323 605.644 62.299 605.701 62.5583Z" fill="#263238"/>
<path d="M169.459 235.074H253.94C253.94 235.074 253.94 164.14 327.654 162.882C365.937 162.209 385.788 187.297 393.863 206.505C403.225 228.813 400.387 254.238 387.836 274.938C373.514 298.563 342.648 322.305 285.713 312.27L285.172 500.498H368.716V388.91C368.716 388.91 485.877 358.628 485.877 229.457C485.877 105.918 385.978 79.235 332.276 77.5088C302.404 76.558 291.579 75.2706 254.627 80.5223C207.537 87.2515 168.464 141.934 169.459 235.074Z" fill="#FF725E"/>
<path d="M369.726 539.732H284.938V618.917H369.726V539.732Z" fill="#FF725E"/>
<path opacity="0.1" d="M369.726 539.732H284.938V618.917H369.726V539.732Z" fill="black"/>
<path opacity="0.1" d="M169.459 235.074H253.94C253.94 235.074 253.94 164.14 327.654 162.882C365.937 162.209 385.788 187.297 393.863 206.505C403.225 228.813 400.387 254.238 387.836 274.938C373.514 298.563 342.648 322.305 285.713 312.27L285.172 500.498H368.716V388.91C368.716 388.91 485.877 358.628 485.877 229.457C485.877 105.918 385.978 79.235 332.276 77.5088C302.404 76.558 291.579 75.2706 254.627 80.5223C207.537 87.2515 168.464 141.934 169.459 235.074Z" fill="black"/>
<path d="M134.452 235.074H218.948C218.948 235.074 218.948 164.14 292.662 162.882C330.945 162.209 350.796 187.297 358.857 206.505C368.234 228.813 365.396 254.238 352.844 274.938C338.523 298.563 307.115 320.038 250.18 310.047V500.497H333.724V388.91C333.724 388.91 450.886 358.628 450.886 229.457C450.886 105.918 340.088 77.2309 292.676 77.2309C256.412 77.2748 132.858 86.0374 134.452 235.074Z" fill="#FF725E"/>
<path opacity="0.3" d="M134.452 235.074H218.948C218.948 235.074 218.948 164.14 292.662 162.882C330.945 162.209 350.796 187.297 358.857 206.505C368.234 228.813 365.396 254.238 352.844 274.938C338.523 298.563 307.115 320.038 250.18 310.047V500.497H333.724V388.91C333.724 388.91 450.886 358.628 450.886 229.457C450.886 105.918 340.088 77.2309 292.676 77.2309C256.412 77.2748 132.858 86.0374 134.452 235.074Z" fill="black"/>
<path d="M334.734 539.732H249.946V618.917H334.734V539.732Z" fill="#FF725E"/>
<path opacity="0.3" d="M334.734 539.732H249.946V618.917H334.734V539.732Z" fill="black"/>
<path d="M302.2 163.262C301.781 163.298 301.36 163.298 300.941 163.262C300.108 163.262 298.908 162.984 297.343 162.97C292.917 162.752 288.481 162.938 284.089 163.526C277.576 164.35 271.168 165.855 264.97 168.017C261.315 169.294 257.757 170.829 254.32 172.61C250.605 174.466 247.107 176.728 243.89 179.354C240.694 182.003 237.831 185.029 235.361 188.365C233.02 191.449 230.885 194.685 228.968 198.049C225.769 203.78 223.232 209.856 221.405 216.16C220.167 220.414 219.315 224.772 218.86 229.179C218.684 230.73 218.64 231.959 218.597 232.778C218.598 233.2 218.558 233.621 218.48 234.036C218.442 233.617 218.442 233.196 218.48 232.778C218.48 231.944 218.48 230.715 218.611 229.15C218.948 224.695 219.727 220.285 220.937 215.984C222.696 209.607 225.201 203.46 228.398 197.669C230.318 194.267 232.463 190.998 234.82 187.882C237.31 184.492 240.209 181.421 243.451 178.739C246.707 176.078 250.249 173.786 254.013 171.908C257.471 170.094 261.054 168.529 264.735 167.227C270.99 165.074 277.46 163.602 284.031 162.838C288.452 162.295 292.916 162.192 297.357 162.531C298.564 162.608 299.766 162.754 300.956 162.97C301.377 163.038 301.792 163.136 302.2 163.262Z" fill="#263238"/>
<path d="M429.498 148.209C429.498 148.209 429.396 148.107 429.221 147.887C429.045 147.668 428.782 147.288 428.489 146.863L425.695 142.914C425.095 142.065 424.452 141.085 423.691 140.076L421.058 136.872L418.044 133.171C416.947 131.884 415.66 130.64 414.372 129.28C413.085 127.919 411.768 126.471 410.276 125.081C408.784 123.692 407.19 122.273 405.551 120.81C404.732 120.078 403.927 119.347 403.05 118.572L400.329 116.421C398.471 114.958 396.628 113.495 394.624 112.033C385.888 105.783 376.622 100.31 366.932 95.6777L359.222 92.196L351.571 89.2703C349.07 88.2317 346.524 87.5002 344.067 86.681C341.609 85.8618 339.21 85.028 336.753 84.4574L329.76 82.6289C327.493 82.0291 325.24 81.6634 323.089 81.166C320.939 80.6686 318.862 80.2298 316.828 79.9811L310.977 79.1326C307.276 78.5036 303.882 78.3719 300.927 78.0793C299.464 77.9623 298.001 77.8014 296.787 77.7429L293.305 77.6551L288.478 77.4942H287.22H286.796C286.936 77.4723 287.079 77.4723 287.22 77.4942H288.478H293.305H296.802C298.074 77.4942 299.464 77.6697 300.956 77.7721C303.882 78.0208 307.334 78.1232 311.035 78.723L316.887 79.513C318.92 79.747 320.997 80.2736 323.162 80.6686C325.328 81.0636 327.551 81.4732 329.877 82.1315L336.899 83.9454C339.327 84.5013 341.726 85.4083 344.213 86.1544C346.7 86.9004 349.231 87.6172 351.732 88.729L359.427 91.6548L367.18 95.151C376.922 99.794 386.225 105.307 394.975 111.623C396.993 113.086 398.837 114.651 400.695 116.099L403.415 118.074C404.293 118.806 405.098 119.537 405.917 120.327L410.627 124.716C412.09 126.178 413.407 127.641 414.709 128.973C416.011 130.304 417.254 131.606 418.351 132.908L421.277 136.638L423.881 139.886C424.627 140.91 425.256 141.904 425.841 142.811C426.982 144.523 427.875 145.869 428.504 146.834L429.191 147.902C429.306 147.991 429.41 148.094 429.498 148.209Z" fill="#263238"/>
<path d="M420.692 329.605C420.518 329.922 420.307 330.216 420.063 330.483L418.044 332.867C417.21 333.935 416.157 335.208 414.855 336.627C413.553 338.046 412.163 339.714 410.467 341.44C408.77 343.166 406.956 345.097 404.893 347.043C402.83 348.988 400.592 351.036 398.208 353.172C387.749 362.3 376.284 370.207 364.035 376.739C361.197 378.202 358.52 379.664 355.931 380.791C353.341 381.917 350.928 383.073 348.704 384.009C346.481 384.945 344.433 385.721 342.648 386.408C340.863 387.096 339.298 387.652 338.011 388.061L335.085 389.012C334.745 389.147 334.392 389.245 334.032 389.305C334.347 389.124 334.68 388.977 335.026 388.866L337.952 387.783C339.225 387.33 340.761 386.745 342.531 386.013C344.301 385.282 346.349 384.551 348.543 383.512C350.738 382.473 353.166 381.493 355.697 380.22C358.227 378.948 360.934 377.602 363.757 376.124C369.331 373.052 375.343 369.454 381.414 365.299C387.485 361.145 392.941 356.771 397.798 352.645C400.183 350.539 402.465 348.564 404.498 346.574C406.531 344.585 408.433 342.786 410.115 341.059C411.798 339.333 413.275 337.739 414.592 336.334C415.908 334.93 416.991 333.701 417.869 332.677L419.917 330.351C420.154 330.082 420.414 329.832 420.692 329.605Z" fill="#263238"/>
<path d="M332.247 493.856C332.028 493.856 331.852 470.362 331.852 441.383C331.852 412.404 332.028 388.895 332.247 388.895C332.466 388.895 332.627 412.389 332.627 441.383C332.627 470.377 332.452 493.856 332.247 493.856Z" fill="#263238"/>
<path d="M335.465 613.548C335.246 613.548 335.085 597.062 335.085 576.728C335.085 556.394 335.246 539.893 335.465 539.893C335.685 539.893 335.846 556.379 335.846 576.728C335.846 597.076 335.67 613.548 335.465 613.548Z" fill="#263238"/>
<path d="M418.629 223.854C417.166 226.78 422.623 229.179 425.768 230.13C428.977 230.918 432.298 231.145 435.584 230.803C439.973 230.569 444.464 230.159 448.252 227.994C451.571 225.939 454.223 222.966 455.889 219.436C457.531 215.918 458.829 212.248 459.765 208.48C459.765 208.48 425.198 210.732 418.629 223.854Z" fill="#FF725E"/>
<g opacity="0.4">
<path d="M418.629 223.854C417.166 226.78 422.623 229.179 425.768 230.13C428.977 230.918 432.298 231.145 435.584 230.803C439.973 230.569 444.464 230.159 448.252 227.994C451.571 225.939 454.223 222.966 455.889 219.436C457.531 215.918 458.829 212.248 459.765 208.48C459.765 208.48 425.198 210.732 418.629 223.854Z" fill="black"/>
</g>
<path d="M516.261 214.492C521.96 218.534 528.789 220.674 535.776 220.607C539.125 220.793 542.427 219.753 545.065 217.681C546.192 216.642 547.04 215.326 548.196 214.331C548.986 213.658 549.907 213.146 550.653 212.429C551.047 212.09 551.351 211.659 551.537 211.174C551.723 210.689 551.787 210.165 551.721 209.65C551.432 208.379 550.721 207.245 549.702 206.432C545.738 204.179 540.998 204.266 536.434 204.369C531.866 204.567 527.354 205.449 523.049 206.987C519.509 208.187 515.808 209.913 514.008 213.131" fill="#FF725E"/>
<g opacity="0.4">
<path d="M551.721 209.65C551.204 208.416 550.294 207.387 549.132 206.724C545.168 204.471 540.998 204.266 536.434 204.369C531.866 204.567 527.354 205.449 523.049 206.987C519.509 208.187 515.808 209.913 514.008 213.131L516.261 214.492C521.96 218.534 528.789 220.674 535.776 220.607C539.125 220.793 542.427 219.753 545.065 217.681C546.192 216.642 547.04 215.326 548.196 214.331C548.986 213.658 549.907 213.146 550.653 212.429C551.047 212.09 551.351 211.659 551.537 211.174C551.723 210.689 551.787 210.165 551.721 209.65Z" fill="black"/>
</g>
<path d="M448.764 266.994L521.688 267.96C521.837 267.959 521.983 267.924 522.116 267.857C522.248 267.79 522.363 267.693 522.451 267.574C522.539 267.454 522.598 267.316 522.623 267.169C522.648 267.023 522.639 266.873 522.595 266.731L514.038 240.048C514.038 240.048 515.296 226.707 517.037 210.674C519.684 186.317 523.21 155.699 523.254 155.787C518.265 141.802 488.832 139.432 488.832 139.432L455.289 141.422L454.119 139.447L444.464 143.938C442.358 144.917 440.333 146.062 438.407 147.361C432.029 151.618 416.669 161.404 413.86 172.303C407.38 197.537 418.351 225.698 418.351 225.698L425.402 220.182C427.178 218.814 429.046 217.568 430.991 216.452L445.122 254.326C444.281 254.856 443.569 255.567 443.037 256.407C442.506 257.247 442.169 258.196 442.05 259.183C441.933 262.255 443.513 265.941 448.764 266.994Z" fill="#FF725E"/>
<g opacity="0.3">
<path d="M480.055 222.348C482.367 209.913 481.152 197.128 479.909 184.547C475.871 194.787 476.018 206.49 471.731 216.642C471.206 217.714 470.822 218.85 470.59 220.022C470.479 220.61 470.508 221.216 470.676 221.791C470.844 222.365 471.145 222.892 471.556 223.328C472.726 224.396 474.482 223.81 476.032 223.635C477.42 223.37 478.771 222.938 480.055 222.348Z" fill="black"/>
</g>
<g opacity="0.4">
<path d="M453.153 251.137C459.005 253.17 465.236 249.381 471.424 248.708C475.52 248.27 479.616 249.206 483.683 249.864C491.907 251.194 500.273 251.401 508.552 250.479C509.822 250.409 511.066 250.085 512.209 249.528C512.8 249.125 513.283 248.584 513.617 247.951C513.951 247.319 514.126 246.615 514.125 245.9C500.345 244.437 486.58 243.647 472.799 242.228C469.369 241.643 465.856 241.757 462.472 242.564C458.317 243.852 455.157 247.114 452.231 250.347" fill="black"/>
</g>
<path d="M549.615 204.852C543.661 191.437 522.669 154.339 522.669 154.339L506.416 174.716L510.205 214.726C510.205 214.726 518.792 205.144 542.798 204.954C544.542 205.024 546.249 205.483 547.793 206.298C549.337 207.113 550.679 208.263 551.721 209.664L549.615 204.852Z" fill="#FF725E"/>
<path d="M452.027 197.757C450.867 194.913 449.947 191.977 449.276 188.979C448.368 186.06 447.702 183.07 447.287 180.041C448.429 182.89 449.344 185.825 450.022 188.819C450.931 191.739 451.602 194.728 452.027 197.757Z" fill="#263238"/>
<path d="M505.187 172.01C505.716 172.384 506.207 172.811 506.65 173.283C507.943 174.531 509.154 175.86 510.278 177.262C514.061 181.886 516.72 187.324 518.046 193.149C518.734 196.369 518.888 199.68 518.499 202.95C518.134 205.949 517.563 208.582 517.183 210.805C516.802 213.029 516.568 214.843 516.451 216.101C516.448 216.755 516.38 217.407 516.247 218.047C516.143 217.394 516.114 216.731 516.159 216.072C516.223 214.279 516.389 212.492 516.656 210.718C516.963 208.48 517.475 205.817 517.812 202.877C518.15 199.681 517.977 196.451 517.3 193.31C515.99 187.593 513.449 182.232 509.854 177.598C507.177 174 505.07 172.127 505.187 172.01Z" fill="#263238"/>
<path d="M490.295 263.776C489.787 264.002 489.251 264.16 488.701 264.244C488.076 264.409 487.441 264.531 486.799 264.61C486.053 264.712 485.205 264.873 484.254 264.917C482.025 265.121 479.782 265.121 477.554 264.917C474.827 264.637 472.133 264.098 469.508 263.308C466.896 262.468 464.369 261.386 461.96 260.075C460.006 258.985 458.151 257.727 456.415 256.315C455.655 255.73 455.04 255.116 454.484 254.604C454.005 254.172 453.551 253.713 453.124 253.229C452.717 252.852 452.367 252.419 452.085 251.941C452.188 251.839 453.753 253.594 456.752 255.891C458.504 257.224 460.357 258.418 462.296 259.461C464.678 260.712 467.165 261.755 469.727 262.576C472.307 263.354 474.951 263.902 477.627 264.215C479.813 264.45 482.013 264.519 484.21 264.42C487.969 264.215 490.266 263.659 490.295 263.776Z" fill="#263238"/>
<path d="M512.809 255.467C513.153 256.128 513.348 256.858 513.379 257.603C513.613 259.386 513.478 261.198 512.984 262.928C512.482 264.696 511.463 266.275 510.059 267.462C508.991 268.355 508.172 268.633 508.128 268.56C508.084 268.486 508.771 268.004 509.693 267.097C510.876 265.863 511.736 264.355 512.194 262.708C513.365 258.846 512.531 255.482 512.809 255.467Z" fill="#263238"/>
<path d="M508.844 260.616C509.162 262.121 509.035 263.685 508.479 265.119C507.923 266.553 506.963 267.794 505.714 268.691C505.553 268.53 506.913 267.082 507.762 264.844C508.61 262.606 508.625 260.631 508.844 260.616Z" fill="#263238"/>
<path d="M495.796 212.488C495.021 213.798 494.15 215.05 493.192 216.233C492.436 217.554 491.58 218.816 490.632 220.007C490.913 218.463 491.577 217.015 492.563 215.794C493.342 214.435 494.455 213.298 495.796 212.488Z" fill="#263238"/>
<path d="M445.736 177.057C444.622 176.403 443.543 175.69 442.503 174.921C437.301 171.503 431.396 169.299 425.227 168.47C423.935 168.376 422.651 168.205 421.38 167.958C422.675 167.779 423.99 167.779 425.285 167.958C431.623 168.499 437.693 170.76 442.84 174.497C443.919 175.212 444.894 176.074 445.736 177.057Z" fill="#263238"/>
<path d="M522.669 153.856C520.05 155.964 517.605 158.278 515.354 160.775C513.282 163.44 511.428 166.268 509.81 169.231C509.983 168.234 510.325 167.275 510.819 166.393C511.879 164.199 513.205 162.145 514.769 160.278C516.338 158.414 518.137 156.758 520.123 155.348C520.879 154.708 521.741 154.203 522.669 153.856Z" fill="#263238"/>
<path d="M492.563 141.802C492.696 142.013 492.804 142.239 492.885 142.475C493.17 143.137 493.4 143.822 493.572 144.523C494.189 147.13 494.189 149.845 493.572 152.452C492.662 156.343 490.578 159.862 487.604 162.531C483.849 165.711 479.065 167.417 474.145 167.329C469.221 167.346 464.423 165.771 460.467 162.838C457.315 160.432 454.758 157.334 452.992 153.783C451.802 151.405 450.965 148.868 450.505 146.249C450.371 145.544 450.283 144.83 450.242 144.113C450.201 143.861 450.201 143.604 450.242 143.353C450.242 143.353 450.403 144.377 450.812 146.191C451.381 148.735 452.281 151.194 453.49 153.505C455.274 156.949 457.808 159.948 460.906 162.282C464.718 165.105 469.329 166.642 474.072 166.671C478.814 166.758 483.43 165.138 487.077 162.107C489.951 159.535 491.989 156.162 492.928 152.422C493.579 149.898 493.669 147.261 493.192 144.698C492.914 142.767 492.475 141.831 492.563 141.802Z" fill="#263238"/>
<g opacity="0.3">
<path d="M497.683 215.077C497.683 214.346 497.566 213.483 496.922 213.117C496.718 213.014 496.492 212.96 496.264 212.96C496.035 212.96 495.81 213.014 495.605 213.117C495.196 213.338 494.834 213.636 494.538 213.995C492.818 215.784 491.488 217.911 490.632 220.241L497.8 219.612C497.756 218.134 497.727 216.584 497.683 215.077Z" fill="black"/>
</g>
<g opacity="0.3">
<path d="M521.484 199.995C520.763 195.893 518.966 192.056 516.276 188.877C519.377 199 518.338 204.72 516.598 211.654L516.978 210.688C518.982 206.636 522.025 204.091 521.484 199.995Z" fill="black"/>
</g>
<path d="M507.162 540.053L502.788 605.663L474.262 605.327L469.771 537.113L507.162 540.053Z" fill="#FFBE9D"/>
<path d="M503.593 597.032V598.934C503.593 598.934 535.776 611.866 536.083 617.951L472.17 617.6L473.165 596.345C482.688 600.806 492.651 601.362 503.593 597.032Z" fill="#FF725E"/>
<path d="M479.646 603.162C479.039 603.345 478.52 603.743 478.186 604.282C477.852 604.821 477.726 605.463 477.832 606.087C477.988 606.712 478.38 607.251 478.926 607.592C479.471 607.933 480.128 608.049 480.757 607.916C481.408 607.722 481.964 607.292 482.315 606.71C482.667 606.129 482.789 605.438 482.659 604.771C482.427 604.139 481.959 603.622 481.352 603.33C480.746 603.038 480.05 602.993 479.412 603.206" fill="white"/>
<path d="M472.17 617.6L472.404 612.495L533.611 614.718C533.611 614.718 536.449 615.976 536.112 617.966L472.17 617.6Z" fill="#263238"/>
<path d="M503.827 599.11C503.827 599.417 502.247 599.548 500.711 600.572C499.175 601.596 498.341 602.869 498.063 602.752C497.785 602.635 498.253 600.821 500.14 599.651C502.027 598.481 503.9 598.773 503.827 599.11Z" fill="#263238"/>
<path d="M510.512 601.918C510.585 602.225 509.225 602.737 508.157 604.054C507.089 605.371 506.782 606.76 506.46 606.746C506.138 606.731 505.963 604.961 507.323 603.367C508.684 601.772 510.498 601.699 510.512 601.918Z" fill="#263238"/>
<path d="M514.272 609.964C513.979 609.964 513.555 608.501 514.374 606.76C515.193 605.02 516.642 604.391 516.773 604.639C516.905 604.888 515.998 605.81 515.31 607.228C514.623 608.647 514.594 609.935 514.272 609.964Z" fill="#263238"/>
<path d="M501.954 60.2177C503.607 56.1217 501.603 51.1626 498.049 48.5148C494.302 46.0486 489.734 45.1602 485.336 46.0425C480.998 46.9522 476.797 48.4277 472.843 50.4311C471.005 48.5767 468.687 47.2699 466.148 46.6566C463.61 46.0433 460.951 46.1476 458.468 46.9579C455.986 47.7682 453.777 49.2526 452.09 51.2454C450.402 53.2381 449.301 55.6608 448.911 58.2428C447.329 57.8447 445.669 57.8848 444.108 58.3588C442.548 58.8327 441.145 59.7226 440.052 60.9331C438.959 62.1435 438.216 63.6288 437.903 65.2295C437.59 66.8302 437.719 68.4859 438.276 70.019L458.054 76.9676L479.646 115.002C482.837 117.725 486.909 119.193 491.103 119.134C495.298 119.074 499.327 117.491 502.44 114.679C505.552 111.867 507.536 108.019 508.02 103.853C508.504 99.686 507.455 95.4856 505.07 92.0351C506.28 90.9593 507.308 89.6946 508.113 88.2902C509.839 87.2699 511.344 85.9167 512.542 84.3095C513.74 82.7022 514.606 80.8729 515.091 78.9278C517.007 70.4578 510.454 61.2125 501.954 60.2177Z" fill="#263238"/>
<path d="M488.862 139.432C487.633 133.244 486.784 129.002 486.799 129.046C486.814 129.09 498.502 124.511 497.654 108.229C497.244 100.125 494.157 87.3539 491.29 76.9968C488.715 67.6637 480.011 57.3797 470.81 60.3494L442.913 73.9541C440.119 74.861 439.636 77.4942 440.294 80.3468V81.8097L451.134 126.661L455.713 146.703C456.689 150.818 459.17 154.418 462.668 156.796C466.167 159.173 470.428 160.154 474.613 159.547C476.899 159.225 479.095 158.44 481.067 157.239C483.038 156.038 484.743 154.447 486.077 152.564C487.412 150.68 488.347 148.543 488.826 146.285C489.304 144.027 489.317 141.695 488.862 139.432Z" fill="#FFBE9D"/>
<path d="M491.188 87.8221C491.305 88.3411 491.219 88.8854 490.947 89.3427C490.674 89.8 490.237 90.1354 489.725 90.2797C489.466 90.3519 489.196 90.371 488.93 90.3359C488.664 90.3009 488.408 90.2124 488.177 90.0757C487.946 89.939 487.745 89.7571 487.586 89.5407C487.427 89.3244 487.314 89.0781 487.253 88.8168C487.136 88.2996 487.222 87.7573 487.495 87.3024C487.767 86.8475 488.204 86.515 488.715 86.3738C488.973 86.2993 489.243 86.278 489.509 86.3112C489.775 86.3443 490.031 86.4313 490.263 86.5668C490.494 86.7023 490.695 86.8835 490.854 87.0993C491.013 87.3151 491.127 87.561 491.188 87.8221Z" fill="#263238"/>
<path d="M489.915 84.7061C489.71 85.028 487.94 84.2234 485.775 84.7061C483.61 85.1889 482.235 86.5933 481.942 86.3738C481.65 86.1544 481.942 85.7448 482.542 85.1011C483.347 84.2507 484.394 83.6684 485.541 83.4334C486.673 83.1894 487.853 83.3177 488.906 83.7992C489.725 84.1356 490.003 84.5745 489.915 84.7061Z" fill="#263238"/>
<path d="M469.947 92.6203C470.064 93.1375 469.977 93.6798 469.705 94.1347C469.432 94.5896 468.995 94.9221 468.484 95.0633C468.231 95.1368 467.967 95.1595 467.705 95.1301C467.444 95.1006 467.191 95.0196 466.961 94.8917C466.731 94.7638 466.529 94.5916 466.366 94.385C466.203 94.1784 466.082 93.9416 466.012 93.6882C465.894 93.1691 465.981 92.6248 466.253 92.1675C466.525 91.7102 466.962 91.3749 467.475 91.2306C467.728 91.1573 467.994 91.1352 468.256 91.1656C468.518 91.196 468.772 91.2782 469.002 91.4076C469.232 91.5369 469.434 91.7107 469.596 91.9189C469.758 92.1271 469.878 92.3656 469.947 92.6203Z" fill="#263238"/>
<path d="M468.879 89.8701C468.689 90.1919 466.904 89.3727 464.739 89.8701C462.574 90.3675 461.199 91.7425 460.906 91.5377C460.614 91.3329 460.906 90.9087 461.506 90.2504C462.315 89.4076 463.361 88.831 464.505 88.5974C465.635 88.357 466.813 88.4799 467.869 88.9485C468.645 89.2995 468.981 89.6945 468.879 89.8701Z" fill="#263238"/>
<path d="M479.894 103.621C480.967 103.029 482.106 102.568 483.288 102.246C483.829 102.07 484.341 101.851 484.356 101.456C484.28 100.874 484.03 100.329 483.639 99.8907L481.108 95.9995C477.568 90.4552 474.877 85.8618 475.096 85.7594C475.316 85.657 478.373 90.0017 481.913 95.546L484.385 99.4665C484.871 100.066 485.134 100.816 485.131 101.588C485.088 101.798 484.998 101.996 484.869 102.168C484.74 102.34 484.575 102.482 484.385 102.582C484.099 102.734 483.794 102.847 483.478 102.919C482.321 103.315 481.115 103.551 479.894 103.621Z" fill="#263238"/>
<path d="M486.799 129.046C479.4 130.718 471.682 130.303 464.505 127.846C464.505 127.846 472.17 137.852 487.633 133.069L486.799 129.046Z" fill="#EB996E"/>
<path d="M469.245 86.7688C469.098 87.3978 466.86 87.3832 464.315 88.0122C461.769 88.6413 459.751 89.5921 459.341 89.0947C459.165 88.8607 459.458 88.2463 460.233 87.6319C461.264 86.764 462.488 86.1569 463.803 85.8618C465.106 85.5526 466.464 85.5526 467.767 85.8618C468.806 86.052 469.347 86.4762 469.245 86.7688Z" fill="#263238"/>
<path d="M489.081 77.8014C488.73 78.3865 486.858 78.2402 484.693 78.6645C482.527 79.0887 480.816 79.8201 480.304 79.3959C480.07 79.1765 480.304 78.6206 480.933 77.933C481.899 77.1207 483.066 76.5849 484.312 76.3824C485.537 76.1355 486.807 76.2266 487.984 76.6457C488.876 77.0553 489.227 77.5088 489.081 77.8014Z" fill="#263238"/>
<path d="M449.803 63.4799C450.127 65.0646 450.795 66.5586 451.762 67.8557C452.728 69.1528 453.968 70.2212 455.394 70.9851C456.819 71.7489 458.396 72.1894 460.011 72.2752C461.626 72.3611 463.24 72.0902 464.739 71.4818C467.05 70.5456 469.449 68.7901 471.79 69.6386C474.131 70.487 475.096 73.8224 477.334 75.0658C480.626 76.909 484.649 73.72 488.32 74.0418C491.246 74.2905 493.455 76.5287 495.723 78.4304C497.99 80.3322 501.121 81.7658 503.681 80.3907C503.094 77.9477 502.225 75.5814 501.091 73.3396C499.947 71.0828 498.055 69.2936 495.737 68.2781C494.45 67.7661 493.06 67.5906 491.831 66.9615C489.184 65.6157 487.999 62.5729 486.082 60.2762C484.824 58.8289 483.238 57.7024 481.457 56.9901C479.677 56.2777 477.752 56.0001 475.842 56.1802C472.682 56.502 469.683 58.0965 466.494 57.9649C464.139 57.8625 461.886 56.8092 459.531 56.8531C454.952 56.8531 451.515 60.9491 448.969 64.7672" fill="#263238"/>
<path d="M465.222 66.8299C463.115 66.669 458.814 66.2301 457.395 64.738C455.954 63.1256 454.114 61.9202 452.06 61.2424C450.006 60.5647 447.81 60.4383 445.692 60.876C443.591 61.5026 441.746 62.7874 440.429 64.5413C439.112 66.2952 438.393 68.4256 438.378 70.6187C435.818 71.2433 433.475 72.5476 431.595 74.3938C429.716 76.24 428.37 78.5595 427.699 81.1075C427.018 83.7748 426.995 86.5676 427.632 89.2457C428.269 91.9238 429.547 94.4072 431.356 96.4822C432.235 97.5811 433.037 98.7395 433.755 99.9492C432.763 101.18 431.891 102.502 431.151 103.899C427.801 111.301 436.886 114.139 436.886 114.139C436.886 119.113 441.494 119.084 444.434 119.069C447.375 119.054 448.998 126.91 451.295 126.603L448.969 102.363C449.31 102.495 449.672 102.565 450.037 102.568C455.581 102.67 454.133 92.1668 452.348 89.402C454 87.3456 455.395 85.0957 456.503 82.702C457.507 79.0427 457.578 75.19 456.708 71.4964C458.566 71.2624 466.129 66.8884 465.222 66.8299Z" fill="#263238"/>
<path d="M449.701 103.65C449.512 102.88 449.131 102.17 448.594 101.587C448.056 101.004 447.38 100.566 446.628 100.315C445.875 100.064 445.072 100.007 444.292 100.15C443.512 100.294 442.781 100.632 442.167 101.134C440.704 102.392 439.929 104.499 440.806 108.024C443.176 117.445 452.144 113.13 452.085 112.866C452.027 112.603 450.725 107.542 449.701 103.65Z" fill="#FFBE9D"/>
<path d="M448.311 110.014C448.311 110.014 448.179 110.175 447.931 110.365C447.585 110.63 447.149 110.751 446.716 110.701C445.634 110.584 444.39 109.238 443.922 107.527C443.699 106.727 443.654 105.888 443.791 105.069C443.806 104.751 443.897 104.441 444.058 104.166C444.218 103.891 444.443 103.659 444.712 103.489C444.89 103.394 445.095 103.363 445.293 103.403C445.491 103.443 445.668 103.551 445.795 103.709C445.985 103.928 445.97 104.133 446.029 104.148C446.087 104.162 446.19 103.928 446.029 103.563C445.917 103.346 445.737 103.171 445.517 103.065C445.207 102.94 444.861 102.94 444.551 103.065C444.184 103.24 443.867 103.504 443.629 103.834C443.391 104.164 443.24 104.549 443.191 104.952C443.001 105.874 443.036 106.827 443.293 107.732C443.457 108.581 443.867 109.364 444.474 109.98C445.08 110.597 445.855 111.021 446.702 111.199C446.977 111.21 447.251 111.159 447.505 111.05C447.758 110.941 447.983 110.777 448.165 110.57C448.355 110.248 448.355 110.028 448.311 110.014Z" fill="#EB996E"/>
<path d="M500.214 90.4991C500.214 90.4991 501.077 89.8408 502.276 88.3779C503.931 86.2701 504.947 83.7315 505.202 81.0636C505.396 79.2423 505.217 77.4007 504.675 75.651C504.05 73.6439 502.893 71.844 501.325 70.4432C499.516 68.8628 497.324 67.783 494.969 67.3108C492.613 66.8386 490.175 66.9906 487.896 67.7515C487.457 67.8978 487.048 68.1172 486.638 68.2927C486.229 68.4683 485.863 68.7316 485.482 68.951L484.897 69.2729V68.6292C484.885 67.496 484.464 66.4053 483.712 65.5572C482.942 64.7341 481.998 64.0942 480.948 63.6847C478.961 62.8567 476.76 62.6926 474.672 63.2166C470.634 64.1382 467.211 65.9814 463.978 66.3618C461.443 66.8024 458.835 66.2807 456.664 64.8989C456.091 64.5047 455.595 64.0089 455.201 63.436C454.967 63.041 454.85 62.8216 454.879 62.807C455.409 63.5294 456.057 64.1574 456.796 64.6648C458.931 65.8977 461.44 66.3184 463.861 65.8497C465.546 65.5328 467.193 65.0426 468.776 64.3869C470.636 63.6437 472.541 63.0231 474.482 62.529C475.563 62.2673 476.676 62.1541 477.788 62.1926C478.961 62.2546 480.115 62.5219 481.196 62.9825C482.315 63.4604 483.314 64.1798 484.122 65.0891C484.987 66.0794 485.474 67.3437 485.497 68.6585L484.912 68.3366L486.126 67.6345C486.58 67.4589 487.004 67.2248 487.472 67.0639C489.874 66.2414 492.45 66.0694 494.94 66.5652C497.43 67.0611 499.744 68.2073 501.647 69.8873C503.292 71.3767 504.497 73.2896 505.129 75.4169C505.785 77.6716 505.874 80.0538 505.386 82.351C504.899 84.6481 503.85 86.789 502.335 88.5827C501.853 89.1326 501.308 89.6236 500.711 90.0456C500.564 90.2164 500.397 90.3687 500.214 90.4991Z" fill="#455A64"/>
<path d="M498.312 57.4236C497.351 56.9361 496.327 56.5864 495.269 56.385C494.06 56.2197 492.828 56.3348 491.67 56.7215C490.171 57.1802 488.868 58.1278 487.969 59.4131L487.604 59.9251L487.384 59.34C486.62 57.5417 485.391 55.9797 483.822 54.8148C482.254 53.65 480.403 52.9245 478.461 52.7132C475.41 52.5985 472.404 53.4706 469.888 55.2001C467.745 56.5971 465.466 57.7734 463.086 58.711C461.445 59.3317 459.677 59.5426 457.937 59.3254C457.473 59.2397 457.017 59.1124 456.576 58.945C456.284 58.8134 456.123 58.7402 456.137 58.711C456.152 58.6817 456.796 58.9011 457.98 59.0182C459.663 59.1233 461.348 58.8483 462.91 58.2136C465.223 57.205 467.441 55.9908 469.537 54.5857C470.832 53.7818 472.204 53.1103 473.633 52.5815C475.204 52.0086 476.884 51.7937 478.548 51.9525C480.623 52.179 482.598 52.9639 484.262 54.2236C485.926 55.4832 487.217 57.1706 487.999 59.1059H487.428C488.434 57.7312 489.871 56.7323 491.509 56.268C492.755 55.9069 494.067 55.8418 495.342 56.0778C496.149 56.2311 496.922 56.5284 497.624 56.9555C497.875 57.078 498.106 57.2357 498.312 57.4236Z" fill="#455A64"/>
<path d="M479.046 107.951C478.704 107.665 478.306 107.455 477.877 107.334C477.449 107.213 477 107.184 476.559 107.249C476.044 107.359 475.558 107.576 475.132 107.886C474.706 108.196 474.35 108.592 474.087 109.048C474.087 109.048 474.014 109.121 473.999 109.165C473.797 109.499 473.705 109.888 473.736 110.277C473.799 110.701 473.966 111.102 474.221 111.447C474.476 111.791 474.812 112.068 475.198 112.252C475.817 112.565 476.517 112.68 477.203 112.581C477.889 112.481 478.527 112.172 479.031 111.696C479.509 111.191 479.777 110.522 479.78 109.826C479.783 109.131 479.52 108.46 479.046 107.951Z" fill="#FF725E"/>
<path d="M479.777 112.501C479.66 112.501 479.529 112.062 479.134 111.462C478.658 110.658 477.947 110.019 477.097 109.632C476.247 109.245 475.298 109.128 474.379 109.297C473.662 109.399 473.224 109.604 473.18 109.502C473.136 109.399 473.472 109.048 474.262 108.77C475.296 108.438 476.417 108.5 477.407 108.946C478.407 109.391 479.198 110.203 479.616 111.213C479.924 111.974 479.88 112.486 479.777 112.501Z" fill="#263238"/>
<path d="M449.92 114.315C449.92 114.315 450.344 115.046 449.788 116.158C449.474 116.823 448.92 117.345 448.238 117.621C447.812 117.773 447.356 117.825 446.907 117.772C446.458 117.718 446.027 117.561 445.649 117.314C445.264 117.079 444.938 116.76 444.697 116.379C444.456 115.998 444.306 115.567 444.259 115.119C444.215 114.397 444.427 113.682 444.859 113.1C445.619 112.135 446.468 112.106 446.468 112.193C446.468 112.281 445.824 112.53 445.312 113.408C445.016 113.899 444.892 114.476 444.961 115.046C445.016 115.38 445.142 115.698 445.331 115.978C445.521 116.259 445.769 116.495 446.058 116.67C446.344 116.853 446.665 116.973 447 117.023C447.335 117.074 447.677 117.053 448.004 116.962C448.544 116.769 449.01 116.411 449.335 115.938C449.906 115.031 449.803 114.315 449.92 114.315Z" fill="#FF725E"/>
<path d="M444.99 113.744C445.063 113.744 444.99 114.241 444.303 114.563C443.965 114.704 443.594 114.744 443.234 114.681C442.874 114.617 442.539 114.452 442.27 114.204C442.001 113.956 441.808 113.637 441.715 113.283C441.621 112.929 441.631 112.556 441.743 112.208C441.886 111.812 442.159 111.477 442.518 111.257C443.118 110.892 443.571 111.038 443.557 111.126C443.542 111.213 443.206 111.316 442.84 111.681C442.66 111.906 442.55 112.179 442.525 112.466C442.499 112.753 442.559 113.041 442.696 113.294C442.834 113.547 443.043 113.754 443.297 113.889C443.552 114.023 443.841 114.08 444.127 114.051C444.625 113.949 444.888 113.686 444.99 113.744Z" fill="#FF725E"/>
<path d="M461.067 243.662C461.067 243.662 497.288 245.768 518.704 245.958C535.279 246.119 542.681 241.716 545.987 231.052C548.766 222.113 542.798 204.954 542.798 204.954C531.577 204.954 524.658 206.563 517.446 209.942L519.363 217.783L460.965 222.816L461.067 243.662Z" fill="#FFBE9D"/>
<path d="M531.534 226.151C529.963 224.109 528.128 222.284 526.077 220.724C523.877 219.378 521.505 218.334 519.026 217.622C519.807 217.51 520.603 217.58 521.352 217.827C523.193 218.262 524.938 219.031 526.501 220.095C528.068 221.162 529.422 222.511 530.495 224.074C531.314 225.273 531.621 226.107 531.534 226.151Z" fill="#EB996E"/>
<path d="M447.814 209.884C447.814 209.884 436.608 212.576 428.372 218.076L437.149 241.862C440.075 249.674 449.013 253.565 456.167 249.469C467.182 243.164 471.073 224.791 471.073 224.791L483.171 172.303L463.115 159.737L447.887 209.884" fill="#FFBE9D"/>
<path d="M463.042 159.737L463.861 142.475L459.37 124.92C459.122 123.955 459.005 122.741 459.794 122.156C460.186 121.855 460.67 121.7 461.163 121.716C461.657 121.732 462.129 121.918 462.501 122.243C463.715 123.501 469.566 138.847 469.566 138.847C469.566 138.847 478.446 133.522 480.026 133.259C481.606 132.995 483.581 137.779 483.712 138.145C483.771 139.217 483.771 140.291 483.712 141.363C483.712 141.363 489.198 141.524 489.696 142.27C490.094 143.794 490.306 145.361 490.325 146.937C490.325 146.937 492.651 147.683 493.016 149.438C493.382 151.194 494.143 154.09 493.016 154.734C491.89 155.377 489.608 156.635 489.608 156.635C489.608 156.635 488.686 165.588 488.437 166.407C488.189 167.227 483.054 172.259 483.054 172.259L463.042 159.737Z" fill="#FFBE9D"/>
<path d="M444.376 249.82C444.376 249.82 444.917 250.142 446.058 250.508C447.727 251.031 449.492 251.171 451.222 250.917C454.002 250.521 456.605 249.321 458.712 247.465C461.496 244.939 463.849 241.974 465.675 238.688C466.751 236.756 467.656 234.735 468.382 232.646C469.142 230.348 469.772 228.008 470.269 225.639C471.41 220.709 472.653 215.399 473.97 209.752C476.603 198.473 479.558 185.864 482.747 172.273V172.171H482.82C483.829 171.176 484.839 170.167 485.848 169.114C486.346 168.587 486.843 168.06 487.311 167.519C487.545 167.241 487.794 166.963 487.984 166.685C488.132 166.41 488.217 166.105 488.233 165.793C488.628 162.867 488.935 159.839 489.257 156.782V156.592L489.432 156.504L492.226 154.939C492.431 154.807 492.753 154.661 492.885 154.544C493.024 154.417 493.117 154.247 493.148 154.061C493.216 153.576 493.216 153.083 493.148 152.598C493.006 151.525 492.786 150.464 492.49 149.423C491.992 148.513 491.157 147.836 490.164 147.536L489.915 147.449V147.2C489.915 146.351 489.827 145.474 489.725 144.611C489.685 144.178 489.622 143.749 489.535 143.323C489.5 143.136 489.441 142.954 489.359 142.782C489.359 142.68 489.359 142.782 489.271 142.694C489.192 142.653 489.108 142.618 489.023 142.592C487.263 142.209 485.469 142.008 483.668 141.992H483.288V141.612C483.288 140.705 483.288 139.695 483.288 138.686C483.228 138.342 483.109 138.01 482.937 137.706C482.791 137.355 482.615 137.018 482.44 136.667C482.097 135.99 481.696 135.344 481.24 134.736C481.033 134.453 480.781 134.206 480.494 134.005C480.388 133.915 480.258 133.859 480.12 133.843C479.982 133.828 479.842 133.853 479.719 133.917C479.011 134.188 478.322 134.506 477.656 134.868C474.935 136.331 472.273 137.794 469.669 139.374L469.288 139.608L469.128 139.198C467.752 135.731 466.377 132.308 465.032 128.958C464.359 127.276 463.7 125.593 463.027 123.94C462.924 123.57 462.718 123.236 462.433 122.978C462.148 122.719 461.797 122.546 461.418 122.477C461.069 122.361 460.69 122.368 460.344 122.495C459.999 122.623 459.707 122.864 459.517 123.18C459.334 123.493 459.257 123.857 459.297 124.218C459.297 124.54 459.502 125.037 459.59 125.432C459.824 126.281 460.043 127.115 460.263 127.949C460.701 129.631 461.126 131.284 461.565 132.922C462.423 136.219 463.266 139.437 464.095 142.577V142.68C463.803 148.687 463.525 154.441 463.261 159.942V159.912L449.935 203.272L446.175 215.34C445.736 216.701 445.4 217.769 445.166 218.515C444.932 219.261 444.785 219.583 444.785 219.583C444.785 219.583 444.859 219.202 445.063 218.486L445.985 215.282C446.833 212.459 448.048 208.377 449.584 203.169C452.743 192.695 457.234 177.745 462.662 159.722V159.795C462.915 154.314 463.174 148.56 463.437 142.533V142.636C462.603 139.491 461.74 136.272 460.877 132.995L459.56 128.022C459.341 127.188 459.122 126.339 458.888 125.506C458.762 125.068 458.659 124.623 458.58 124.174C458.526 123.667 458.634 123.155 458.888 122.711C459.158 122.255 459.576 121.904 460.072 121.717C460.563 121.573 461.083 121.557 461.582 121.669C462.081 121.782 462.543 122.02 462.925 122.36C463.292 122.705 463.564 123.138 463.715 123.618L465.719 128.636C467.08 132.001 468.44 135.424 469.83 138.876L469.288 138.686C471.907 137.135 474.54 135.585 477.32 134.137C478.022 133.769 478.745 133.442 479.485 133.156C479.716 133.06 479.968 133.025 480.216 133.054C480.466 133.09 480.706 133.18 480.918 133.317C481.271 133.57 481.582 133.876 481.84 134.224C482.329 134.864 482.755 135.55 483.113 136.272C483.303 136.638 483.478 136.989 483.639 137.355C483.847 137.742 483.986 138.163 484.049 138.598C484.049 139.637 484.049 140.602 484.049 141.524L483.683 141.129C485.564 141.142 487.437 141.357 489.271 141.773C489.397 141.817 489.52 141.87 489.637 141.934C489.798 142.021 489.93 142.153 490.017 142.314C490.131 142.551 490.214 142.802 490.266 143.06C490.354 143.528 490.412 143.967 490.471 144.42C490.559 145.313 490.617 146.191 490.661 147.068L490.398 146.717C490.996 146.893 491.552 147.188 492.032 147.585C492.513 147.983 492.907 148.474 493.192 149.028C493.512 150.14 493.747 151.275 493.894 152.422C493.996 153.008 493.996 153.607 493.894 154.192C493.83 154.547 493.644 154.868 493.367 155.099C493.127 155.26 492.878 155.407 492.621 155.538L489.842 156.987L490.032 156.709C489.696 159.766 489.388 162.765 488.979 165.734L488.891 166.305C488.857 166.536 488.761 166.753 488.613 166.934C488.398 167.254 488.158 167.557 487.896 167.841C487.399 168.397 486.901 168.938 486.433 169.465C485.424 170.518 484.415 171.527 483.391 172.522L483.493 172.347C480.275 185.922 477.29 198.532 474.613 209.811C473.282 215.443 472.009 220.753 470.839 225.668C470.339 228.055 469.694 230.41 468.908 232.719C468.155 234.827 467.226 236.868 466.129 238.819C464.26 242.148 461.853 245.143 459.005 247.684C456.835 249.552 454.164 250.743 451.324 251.108C449.557 251.345 447.758 251.164 446.073 250.581C445.644 250.423 445.228 250.233 444.829 250.01L444.376 249.82Z" fill="#EB996E"/>
<path d="M483.727 141.407C483.727 141.509 483.23 141.568 482.454 141.597C481.47 141.616 480.49 141.733 479.529 141.948C478.601 142.176 477.746 142.634 477.042 143.279C476.515 143.777 476.281 144.201 476.164 144.157C476.047 144.113 476.164 143.587 476.647 142.914C477.328 142.062 478.276 141.464 479.338 141.217C480.362 140.964 481.426 140.915 482.469 141.07C483.259 141.173 483.727 141.305 483.727 141.407Z" fill="#EB996E"/>
<path d="M479.485 141.568C479.295 141.495 479.28 141.041 479.485 140.559C479.689 140.076 479.982 139.739 480.172 139.812C480.362 139.886 480.392 140.339 480.172 140.822C479.953 141.305 479.631 141.641 479.485 141.568Z" fill="#EB996E"/>
<path d="M490.573 146.878C489.153 147.317 487.67 147.52 486.185 147.478C485.717 147.462 485.252 147.559 484.83 147.76C484.407 147.961 484.039 148.261 483.756 148.634C483.376 149.233 483.508 149.731 483.391 149.76C483.274 149.789 482.922 149.277 483.288 148.399C483.49 147.905 483.857 147.497 484.327 147.244C484.868 146.947 485.467 146.767 486.082 146.717C487.576 146.488 489.1 146.543 490.573 146.878Z" fill="#EB996E"/>
<path d="M489.608 152.144C489.813 152.144 489.93 153.227 489.871 154.558C489.813 155.889 489.593 156.943 489.388 156.943C489.183 156.943 489.052 155.845 489.11 154.514C489.169 153.183 489.388 152.13 489.608 152.144Z" fill="#EB996E"/>
<path d="M495.679 191.539L496.981 187.063C497.04 186.858 497.152 186.672 497.305 186.524C497.459 186.375 497.648 186.269 497.855 186.216C498.061 186.163 498.278 186.165 498.484 186.221C498.69 186.277 498.878 186.386 499.029 186.536L500.74 188.277L501.793 184.05C501.855 183.805 501.991 183.586 502.182 183.421C502.372 183.257 502.609 183.155 502.86 183.129C503.111 183.104 503.363 183.156 503.583 183.279C503.803 183.401 503.98 183.589 504.09 183.816L506.475 188.819L495.679 191.539Z" fill="white"/>
<path d="M506.504 190.735C504.868 191.526 503.13 192.087 501.34 192.403C499.609 192.968 497.806 193.283 495.986 193.339C499.354 191.986 502.894 191.11 506.504 190.735Z" fill="white"/>
<path d="M419.507 165.764C419.507 165.764 418.966 166.32 418.205 167.505C417.184 169.192 416.512 171.067 416.23 173.02C415.813 175.926 415.725 178.87 415.967 181.797C416.128 185.118 416.391 188.745 416.801 192.549C417.494 199.044 418.524 205.5 419.887 211.888C420.399 214.346 420.867 216.277 421.189 217.739C421.336 218.354 421.467 218.866 421.57 219.305C421.672 219.744 421.687 219.861 421.687 219.861C421.687 219.861 421.614 219.685 421.511 219.334C421.409 218.983 421.248 218.369 421.087 217.769C420.721 216.408 420.224 214.448 419.624 211.99C418.202 205.604 417.142 199.143 416.45 192.637C416.04 188.833 415.791 185.191 415.645 181.87C415.423 178.941 415.531 175.997 415.967 173.093C416.281 171.115 416.998 169.223 418.073 167.534C418.47 166.882 418.952 166.287 419.507 165.764Z" fill="white"/>
<path d="M450.3 145.839L449.964 146.015L448.999 146.483C448.165 146.878 446.95 147.463 445.502 148.268C441.727 150.373 438.06 152.668 434.516 155.143C430.332 158.069 426.631 160.731 423.925 162.662L420.721 164.93L419.829 165.53C419.729 165.609 419.621 165.678 419.507 165.734C419.59 165.636 419.689 165.552 419.8 165.486L420.648 164.842L423.793 162.487C426.47 160.512 430.157 157.762 434.341 154.895C437.891 152.409 441.584 150.133 445.4 148.078C446.863 147.302 448.092 146.746 448.955 146.381L449.935 145.971C450.227 145.869 450.227 145.825 450.3 145.839Z" fill="white"/>
<path d="M520.065 155.363C519.973 155.312 519.889 155.248 519.816 155.173L519.158 154.602C518.342 153.914 517.488 153.274 516.598 152.686C513.628 150.792 510.477 149.2 507.191 147.931C503.916 146.634 500.57 145.52 497.171 144.596C495.854 144.23 494.801 143.967 494.055 143.791L493.221 143.572C493.119 143.551 493.021 143.517 492.928 143.47H493.236L494.084 143.631C494.83 143.777 495.898 144.011 497.215 144.347C500.647 145.214 504.018 146.303 507.308 147.61C510.613 148.877 513.768 150.506 516.715 152.466C517.941 153.297 519.066 154.269 520.065 155.363Z" fill="white"/>
<path d="M450.71 267.024C450.512 266.988 450.319 266.924 450.14 266.833C449.631 266.61 449.142 266.346 448.677 266.043C447.889 265.571 447.201 264.948 446.654 264.21C446.107 263.472 445.711 262.634 445.488 261.743C445.086 259.944 445.286 258.062 446.058 256.388C446.281 255.869 446.566 255.377 446.907 254.926C447.141 254.618 447.302 254.472 447.316 254.487C446.917 255.111 446.56 255.761 446.248 256.432C445.568 258.076 445.41 259.889 445.795 261.626C446.214 263.34 447.257 264.837 448.721 265.824C449.935 266.702 450.739 266.965 450.71 267.024Z" fill="white"/>
<path d="M446.058 251.181C446.369 251.761 446.601 252.381 446.746 253.024C446.975 253.639 447.113 254.285 447.155 254.94C446.823 254.373 446.586 253.755 446.453 253.112C446.213 252.495 446.08 251.842 446.058 251.181Z" fill="white"/>
<path d="M465.836 579.171L510.454 578.951L509.649 424.692L509.225 267.77L448.764 266.994L437.895 287.474C433.448 295.708 430.613 304.715 429.542 314.011C428.811 321.12 434.136 344.234 435.979 350.085L452.612 402.836L465.836 579.171Z" fill="#263238"/>
<path d="M522.318 267.96L571.353 401.622C574.258 410.234 575.223 419.382 574.178 428.411C573.134 437.439 570.106 446.125 565.311 453.847L508.376 565.025L476.369 524.971L524 425.496L482.015 357.4L489.081 268.165L508.859 267.843L522.318 267.96Z" fill="#263238"/>
<path d="M505.158 312.738C505.158 312.738 505.158 312.972 505.158 313.426C505.158 313.879 505.231 314.581 505.29 315.445C505.392 317.244 505.524 319.833 505.699 323.183C506.036 329.956 506.504 339.684 507.162 351.694C507.82 363.705 508.376 378.026 509.108 393.971C509.459 401.929 509.839 410.282 510.22 418.943C510.498 423.331 510.38 427.72 510.424 432.108C510.468 436.497 510.424 441.12 510.424 445.713C510.424 482.475 510.541 515.755 510.585 539.878C510.585 551.903 510.585 561.645 510.585 568.419C510.585 571.769 510.585 574.372 510.585 576.186C510.585 577.035 510.585 577.649 510.585 578.205C510.585 578.761 510.585 578.893 510.585 578.893C510.585 578.893 510.585 578.659 510.585 578.205V576.186C510.585 574.372 510.585 571.798 510.498 568.419C510.498 561.645 510.38 551.917 510.293 539.893C510.19 515.77 510.059 482.49 509.912 445.728C509.912 441.134 509.912 436.599 509.912 432.123C509.912 427.647 510 423.229 509.722 418.957C509.356 410.312 508.991 401.959 508.654 394.001C507.981 378.085 507.367 363.763 506.87 351.709C506.372 339.655 506.007 329.971 505.729 323.198C505.612 319.862 505.524 317.259 505.465 315.445C505.465 314.581 505.465 313.982 505.465 313.426C505.465 312.87 505.158 312.738 505.158 312.738Z" fill="#455A64"/>
<path d="M504.032 270.593C504.203 271.064 504.306 271.556 504.339 272.056C504.5 272.992 504.675 274.353 504.88 276.049C505.26 279.429 505.67 284.125 505.904 289.318C506.138 294.511 506.153 299.221 506.08 302.63C506.08 304.327 505.977 305.716 505.904 306.667C505.919 307.161 505.86 307.654 505.729 308.13C505.544 306.303 505.481 304.465 505.538 302.63C505.538 299.221 505.377 294.54 505.143 289.347C504.909 284.154 504.588 279.487 504.339 276.181C504.131 274.326 504.028 272.46 504.032 270.593Z" fill="#455A64"/>
<path d="M494.201 273.606C494.274 273.709 493.44 274.089 493.206 275.274C493.141 275.596 493.159 275.928 493.259 276.241C493.359 276.553 493.537 276.835 493.777 277.059C494.066 277.328 494.427 277.508 494.816 277.578C495.205 277.648 495.606 277.605 495.971 277.454C496.322 277.273 496.614 276.998 496.816 276.659C497.018 276.32 497.12 275.932 497.112 275.537C497.099 275.21 497.002 274.892 496.83 274.612C496.659 274.333 496.418 274.103 496.132 273.943C495.537 273.655 494.873 273.538 494.216 273.606C494.216 273.606 494.362 273.416 494.742 273.299C495.291 273.165 495.869 273.222 496.381 273.46C496.789 273.63 497.142 273.91 497.401 274.269C497.659 274.628 497.812 275.052 497.844 275.494C497.902 276.038 497.787 276.587 497.517 277.064C497.247 277.54 496.834 277.92 496.336 278.149C495.839 278.378 495.282 278.446 494.744 278.342C494.206 278.238 493.715 277.969 493.338 277.571C493.027 277.262 492.807 276.873 492.701 276.448C492.595 276.022 492.608 275.576 492.738 275.157C492.885 274.61 493.216 274.129 493.675 273.797C493.967 273.592 494.187 273.563 494.201 273.606Z" fill="#455A64"/>
<path d="M470.795 270.959C471.011 271.42 471.144 271.915 471.19 272.422C471.426 273.735 471.47 275.075 471.322 276.401C471.112 278.375 470.541 280.293 469.64 282.062C468.55 284.262 466.937 286.16 464.943 287.591C462.948 289.022 460.633 289.942 458.2 290.269C456.253 290.559 454.268 290.485 452.348 290.049C451.049 289.767 449.798 289.299 448.633 288.659C448.192 288.451 447.788 288.175 447.433 287.84C449.05 288.568 450.736 289.131 452.466 289.523C454.546 289.955 456.694 289.952 458.773 289.512C460.852 289.073 462.818 288.208 464.546 286.971C466.274 285.733 467.726 284.151 468.812 282.325C469.898 280.498 470.593 278.466 470.854 276.357C471.026 274.56 471.006 272.751 470.795 270.959Z" fill="#455A64"/>
<path d="M528.198 283.773C527.244 283.884 526.277 283.768 525.375 283.437C523.165 282.741 521.18 281.468 519.626 279.75C518.057 278.04 516.98 275.937 516.51 273.665C516.279 272.738 516.279 271.769 516.51 270.842C516.642 270.842 516.656 271.91 517.095 273.548C517.688 275.665 518.766 277.615 520.244 279.243C521.722 280.87 523.559 282.131 525.609 282.925C527.13 283.525 528.213 283.627 528.198 283.773Z" fill="#455A64"/>
<path d="M545.621 427.866C544.888 428.702 544.011 429.401 543.032 429.929C542.005 430.58 540.885 431.073 539.711 431.392C538.234 431.783 536.675 431.742 535.22 431.275C532.665 430.311 530.476 428.572 528.959 426.301C528.262 425.447 527.687 424.502 527.247 423.492C528.037 424.246 528.752 425.074 529.383 425.964C530.937 428.024 533.034 429.61 535.439 430.543C536.667 430.871 537.949 430.945 539.206 430.762C540.464 430.578 541.671 430.14 542.754 429.475C543.678 428.884 544.635 428.347 545.621 427.866Z" fill="#455A64"/>
<path d="M534.445 436.395C532.716 434.604 531.172 432.644 529.837 430.543C528.299 428.587 526.956 426.485 525.828 424.267C527.569 426.051 529.118 428.013 530.451 430.119C532.002 432.063 533.34 434.167 534.445 436.395Z" fill="#455A64"/>
<path d="M459.487 317.902C459.282 317.975 458.77 317.141 458.317 316.015C457.863 314.889 457.673 313.938 457.863 313.85C458.054 313.762 458.58 314.611 459.019 315.737C459.458 316.863 459.677 317.902 459.487 317.902Z" fill="#FAFAFA"/>
<path d="M487.808 321.969C487.589 321.969 487.428 321.252 487.428 320.36C487.428 319.467 487.589 318.736 487.808 318.736C488.028 318.736 488.189 319.467 488.189 320.36C488.189 321.252 488.013 321.969 487.808 321.969Z" fill="#FAFAFA"/>
<path d="M476.164 337.358C475.959 337.358 475.725 336.481 475.652 335.354C475.579 334.228 475.652 333.321 475.886 333.306C476.12 333.292 476.34 334.184 476.413 335.31C476.486 336.437 476.369 337.344 476.164 337.358Z" fill="#FAFAFA"/>
<path d="M454.894 348.622C454.718 348.754 454.119 348.213 453.329 347.657C452.539 347.101 451.866 346.677 451.866 346.472C451.866 346.267 452.831 346.384 453.724 347.028C454.616 347.672 455.069 348.622 454.894 348.622Z" fill="#FAFAFA"/>
<path d="M492.387 362.973C492.212 362.856 492.387 362.227 492.885 361.51C493.382 360.794 493.835 360.384 494.011 360.501C494.187 360.618 494.011 361.262 493.514 361.964C493.016 362.666 492.563 363.09 492.387 362.973Z" fill="#FAFAFA"/>
<path d="M469.245 367.025C469.04 367.025 468.864 365.811 468.864 364.334C468.864 362.856 469.04 361.627 469.245 361.627C469.449 361.627 469.625 362.841 469.625 364.334C469.625 365.826 469.406 367.025 469.245 367.025Z" fill="#FAFAFA"/>
<path d="M461.667 383.439C461.55 383.6 460.789 383.263 459.97 382.663C459.151 382.064 458.507 381.449 458.697 381.274C458.888 381.098 459.59 381.449 460.409 382.049C461.228 382.649 461.799 383.263 461.667 383.439Z" fill="#FAFAFA"/>
<path d="M485.102 389.144C485.19 389.334 484.722 389.729 484.049 390.036C483.376 390.343 482.762 390.417 482.674 390.226C482.586 390.036 483.069 389.641 483.742 389.334C484.415 389.027 485.029 388.954 485.102 389.144Z" fill="#FAFAFA"/>
<path d="M469.245 415.914C469.069 416.002 468.308 414.876 467.562 413.384C466.816 411.892 466.363 410.604 466.553 410.458C466.743 410.312 467.504 411.497 468.235 412.989C468.967 414.481 469.376 415.754 469.245 415.914Z" fill="#FAFAFA"/>
<path d="M495.094 413.428C494.903 413.325 495.24 412.345 495.825 411.219C496.41 410.092 497.068 409.273 497.288 409.375C497.507 409.478 497.142 410.458 496.542 411.584C495.942 412.711 495.269 413.53 495.094 413.428Z" fill="#FAFAFA"/>
<path d="M483.756 436.087C483.537 436.087 483.566 434.902 483.332 433.527C483.098 432.152 482.747 431.055 482.952 430.953C483.156 430.85 483.859 431.889 484.093 433.41C484.327 434.932 483.961 436.131 483.756 436.087Z" fill="#FAFAFA"/>
<path d="M471.614 449.034C471.468 449.18 470.737 448.624 469.991 447.805C469.245 446.986 468.762 446.21 468.923 446.064C469.084 445.918 469.801 446.474 470.547 447.293C471.293 448.112 471.775 448.887 471.614 449.034Z" fill="#FAFAFA"/>
<path d="M501.077 453.949C500.93 453.803 501.472 453.013 502.291 452.179C503.11 451.345 503.871 450.804 504.032 450.95C504.193 451.096 503.637 451.901 502.832 452.72C502.027 453.539 501.238 454.095 501.077 453.949Z" fill="#FAFAFA"/>
<path d="M484.137 473.332C483.932 473.332 483.932 472.176 484.137 470.831C484.341 469.485 484.663 468.431 484.883 468.461C485.102 468.49 485.087 469.602 484.883 470.948C484.678 472.293 484.341 473.361 484.137 473.332Z" fill="#FAFAFA"/>
<path d="M472.741 482.738C472.551 482.841 471.907 482.08 471.278 481.041C470.649 480.003 470.327 479.081 470.503 478.979C470.678 478.876 471.322 479.622 471.966 480.661C472.609 481.7 472.916 482.621 472.741 482.738Z" fill="#FAFAFA"/>
<path d="M500.199 494.602C500.331 494.778 499.585 495.524 498.531 496.27C497.478 497.016 496.556 497.484 496.425 497.308C496.293 497.133 497.054 496.387 498.092 495.641C499.131 494.895 500.082 494.441 500.199 494.602Z" fill="#FAFAFA"/>
<path d="M477.32 510.006C477.115 509.933 477.32 508.763 477.51 507.3C477.7 505.837 477.583 504.637 477.802 504.608C478.022 504.579 478.402 505.808 478.256 507.373C478.11 508.938 477.51 510.094 477.32 510.006Z" fill="#FAFAFA"/>
<path d="M486.463 532.125C486.287 532.256 485.673 531.759 485.073 531.013C484.473 530.267 484.137 529.55 484.298 529.418C484.458 529.287 485.073 529.784 485.673 530.53C486.272 531.276 486.623 531.993 486.463 532.125Z" fill="#FAFAFA"/>
<path d="M476.471 546.958C476.296 547.075 475.491 546.212 474.672 545.013C473.853 543.813 473.341 542.76 473.502 542.643C473.662 542.526 474.482 543.389 475.301 544.588C476.12 545.788 476.647 546.841 476.471 546.958Z" fill="#FAFAFA"/>
<path d="M503.988 528.336C503.798 528.263 503.812 527.722 503.988 527.136C504.163 526.551 504.558 526.112 504.763 526.185C504.968 526.259 504.939 526.8 504.763 527.4C504.588 527.999 504.193 528.424 503.988 528.336Z" fill="#FAFAFA"/>
<path d="M491.846 563.664C491.656 563.562 492.021 562.523 492.314 561.221C492.607 559.919 492.709 558.822 492.928 558.808C493.148 558.793 493.367 559.978 493.06 561.382C492.753 562.787 492.022 563.781 491.846 563.664Z" fill="#FAFAFA"/>
<path d="M499.745 337.592C499.555 337.68 499.087 337.095 498.707 336.276C498.326 335.457 498.166 334.725 498.356 334.637C498.546 334.55 499.014 335.135 499.394 335.954C499.775 336.773 499.965 337.505 499.745 337.592Z" fill="#FAFAFA"/>
<path d="M479.485 292.039C479.602 292.214 478.578 293.033 477.481 294.204C476.383 295.374 475.637 296.457 475.447 296.354C475.257 296.252 475.754 294.891 476.91 293.692C478.066 292.492 479.338 291.848 479.485 292.039Z" fill="#FAFAFA"/>
<path d="M497.522 291.571C497.302 291.571 496.966 290.737 496.454 289.742C495.942 288.747 495.474 287.928 495.635 287.782C495.796 287.635 496.586 288.279 497.098 289.391C497.61 290.503 497.712 291.453 497.522 291.571Z" fill="#FAFAFA"/>
<path d="M441.201 306.36C441.011 306.272 441.201 305.307 441.655 304.195C442.108 303.083 442.606 302.22 442.811 302.308C443.015 302.396 442.811 303.347 442.357 304.473C441.904 305.599 441.45 306.433 441.201 306.36Z" fill="#FAFAFA"/>
<path d="M443.03 328.449C442.884 328.61 442.05 328.142 441.157 327.396C440.265 326.65 439.695 325.933 439.782 325.758C439.87 325.582 440.763 326.065 441.655 326.811C442.547 327.557 443.162 328.288 443.03 328.449Z" fill="#FAFAFA"/>
<path d="M479.982 274.499C479.792 274.499 479.382 274.031 479.09 273.285C478.797 272.539 478.709 271.822 478.9 271.822C479.09 271.822 479.499 272.29 479.792 273.036C480.084 273.782 480.172 274.426 479.982 274.499Z" fill="#FAFAFA"/>
<path d="M515.369 285.295C515.164 285.295 515.179 284.373 515.369 283.335C515.559 282.296 515.939 281.477 516.144 281.521C516.349 281.564 516.334 282.457 516.144 283.495C515.954 284.534 515.574 285.339 515.369 285.295Z" fill="#FAFAFA"/>
<path d="M523.678 302.015C523.488 301.928 523.751 300.845 524.278 299.572C524.804 298.3 525.375 297.349 525.565 297.422C525.755 297.495 525.565 298.592 524.98 299.865C524.395 301.138 523.883 302.089 523.678 302.015Z" fill="#FAFAFA"/>
<path d="M517.753 315.503C517.563 315.591 516.861 314.581 516.188 313.25C515.515 311.919 515.135 310.734 515.325 310.646C515.515 310.559 516.203 311.568 516.876 312.899C517.549 314.23 517.944 315.401 517.753 315.503Z" fill="#FAFAFA"/>
<path d="M530.422 328.991C530.232 328.918 530.422 328.069 530.744 327.104C531.065 326.138 531.577 325.407 531.782 325.48C531.987 325.553 531.782 326.401 531.46 327.367C531.139 328.332 530.685 329.064 530.422 328.991Z" fill="#FAFAFA"/>
<path d="M519.099 342.2C518.924 342.317 518.47 341.922 518.104 341.337C517.739 340.752 517.563 340.167 517.753 340.05C517.944 339.933 518.368 340.328 518.748 340.928C519.128 341.527 519.275 342.098 519.099 342.2Z" fill="#FAFAFA"/>
<path d="M521.513 369.468C521.367 369.6 520.445 368.883 519.48 367.83C518.514 366.777 517.856 365.826 518.017 365.679C518.178 365.533 519.085 366.265 520.05 367.318C521.016 368.371 521.674 369.322 521.513 369.468Z" fill="#FAFAFA"/>
<path d="M536.361 353.801C536.2 353.933 535.396 353.201 534.576 352.148C533.757 351.095 533.23 350.158 533.391 350.027C533.552 349.895 534.357 350.641 535.176 351.68C535.995 352.718 536.537 353.684 536.361 353.801Z" fill="#FAFAFA"/>
<path d="M544.509 375.408C544.319 375.32 544.656 374.223 545.255 372.965C545.855 371.707 546.484 370.741 546.718 370.829C546.952 370.917 546.587 372.028 545.987 373.286C545.387 374.544 544.699 375.51 544.509 375.408Z" fill="#FAFAFA"/>
<path d="M527.189 393.196C526.999 393.298 526.326 392.494 525.39 391.631C524.453 390.768 523.59 390.168 523.678 389.948C523.766 389.729 524.878 390.124 525.902 391.075C526.926 392.026 527.364 393.094 527.189 393.196Z" fill="#FAFAFA"/>
<path d="M528.271 411.526C528.271 411.731 527.54 411.906 526.648 411.906C525.755 411.906 525.038 411.731 525.038 411.526C525.038 411.321 525.755 411.145 526.648 411.145C527.54 411.145 528.271 411.321 528.271 411.526Z" fill="#FAFAFA"/>
<path d="M546.074 406.406C545.884 406.303 546.265 405.382 546.543 404.241C546.821 403.1 546.938 402.105 547.157 402.09C547.376 402.076 547.611 403.144 547.289 404.416C546.967 405.689 546.235 406.523 546.074 406.406Z" fill="#FAFAFA"/>
<path d="M563.761 412.564C563.57 412.638 563.029 411.599 562.561 410.268C562.093 408.937 561.873 407.796 562.064 407.737C562.254 407.678 562.81 408.688 563.278 410.019C563.746 411.35 563.965 412.491 563.761 412.564Z" fill="#FAFAFA"/>
<path d="M560.937 437.726C560.762 437.623 561.215 436.395 561.947 434.976C562.678 433.557 563.409 432.489 563.629 432.591C563.848 432.694 563.366 433.922 562.62 435.327C561.873 436.731 561.127 437.857 560.937 437.726Z" fill="#FAFAFA"/>
<path d="M544.802 452.486C544.612 452.559 544.012 451.55 543.456 450.219C542.9 448.888 542.622 447.746 542.827 447.659C543.032 447.571 543.617 448.595 544.158 449.926C544.699 451.257 544.992 452.486 544.802 452.486Z" fill="#FAFAFA"/>
<path d="M526.926 458.206C526.926 458.411 526.311 458.586 525.565 458.586C524.819 458.586 524.219 458.411 524.219 458.206C524.219 458.001 524.834 457.826 525.565 457.826C526.297 457.826 526.926 458.001 526.926 458.206Z" fill="#FAFAFA"/>
<path d="M537.166 481.744C536.975 481.744 536.566 480.939 536.259 479.827C535.951 478.715 535.893 477.75 536.098 477.706C536.303 477.662 536.698 478.511 537.005 479.622C537.312 480.734 537.37 481.627 537.166 481.744Z" fill="#FAFAFA"/>
<path d="M524.219 473.844C524.044 473.742 524.219 473.054 524.702 472.308C525.185 471.562 525.667 471.05 525.843 471.152C526.019 471.255 525.843 471.957 525.36 472.703C524.878 473.449 524.409 473.961 524.219 473.844Z" fill="#FAFAFA"/>
<path d="M523.956 499.751C523.751 499.751 523.459 498.771 523.312 497.499C523.166 496.226 523.21 495.187 523.415 495.158C523.619 495.129 523.912 496.138 524.058 497.411C524.205 498.684 524.161 499.722 523.956 499.751Z" fill="#FAFAFA"/>
</svg>
