<svg width="15" height="16" viewBox="0 0 15 16" fill="none" xmlns="http://www.w3.org/2000/svg">
<path d="M7.5 6.07481C7.13213 6.07481 6.77251 6.1839 6.46664 6.38828C6.16076 6.59266 5.92236 6.88315 5.78158 7.22302C5.6408 7.56289 5.60397 7.93688 5.67574 8.29768C5.74751 8.65849 5.92466 8.98991 6.18478 9.25003C6.44491 9.51016 6.77633 9.68731 7.13713 9.75908C7.49794 9.83084 7.87192 9.79401 8.21179 9.65323C8.55166 9.51245 8.84215 9.27405 9.04653 8.96817C9.25091 8.6623 9.36 8.30269 9.36 7.93481C9.36 7.69056 9.31189 7.44869 9.21842 7.22302C9.12494 6.99736 8.98794 6.79231 8.81522 6.6196C8.6425 6.44688 8.43746 6.30987 8.21179 6.2164C7.98613 6.12292 7.74426 6.07481 7.5 6.07481ZM14.9475 4.23731C14.9436 3.65813 14.8369 3.08424 14.6325 2.54231C14.482 2.14576 14.249 1.78563 13.9491 1.4857C13.6492 1.18577 13.2891 0.952853 12.8925 0.802314C12.3506 0.597912 11.7767 0.49126 11.1975 0.487314C10.23 0.434814 9.945 0.434814 7.5 0.434814C5.055 0.434814 4.77 0.434814 3.8025 0.487314C3.22332 0.49126 2.64943 0.597912 2.1075 0.802314C1.71094 0.952853 1.35082 1.18577 1.05089 1.4857C0.750958 1.78563 0.518038 2.14576 0.3675 2.54231C0.163098 3.08424 0.0564457 3.65813 0.0524999 4.23731C-5.02914e-08 5.20481 0 5.48981 0 7.93481C0 10.3798 -5.02914e-08 10.6648 0.0524999 11.6323C0.0605729 12.2135 0.167081 12.7892 0.3675 13.3348C0.517371 13.7296 0.750097 14.0876 1.05 14.3848C1.34865 14.6865 1.70954 14.9195 2.1075 15.0673C2.64943 15.2717 3.22332 15.3784 3.8025 15.3823C4.77 15.4348 5.055 15.4348 7.5 15.4348C9.945 15.4348 10.23 15.4348 11.1975 15.3823C11.7767 15.3784 12.3506 15.2717 12.8925 15.0673C13.2905 14.9195 13.6514 14.6865 13.95 14.3848C14.2499 14.0876 14.4826 13.7296 14.6325 13.3348C14.8367 12.7902 14.9433 12.2139 14.9475 11.6323C15 10.6648 15 10.3798 15 7.93481C15 5.48981 15 5.20481 14.9475 4.23731ZM13.0425 10.2373C13.0184 10.7001 12.9197 11.156 12.75 11.5873C12.6044 11.9471 12.3879 12.2739 12.1135 12.5483C11.8391 12.8228 11.5123 13.0392 11.1525 13.1848C10.7171 13.345 10.2587 13.4337 9.795 13.4473C9.2025 13.4473 9.045 13.4473 7.5 13.4473C5.955 13.4473 5.7975 13.4473 5.205 13.4473C4.7413 13.4337 4.28287 13.345 3.8475 13.1848C3.47558 13.0466 3.13971 12.8261 2.865 12.5398C2.59325 12.2708 2.38338 11.9457 2.25 11.5873C2.08917 11.1524 2.00295 10.6934 1.995 10.2298C1.995 9.63731 1.995 9.47981 1.995 7.93481C1.995 6.38981 1.995 6.23231 1.995 5.63981C2.00295 5.17618 2.08917 4.71723 2.25 4.28231C2.38821 3.91039 2.60871 3.57452 2.895 3.29981C3.16525 3.02953 3.48995 2.81988 3.8475 2.68481C4.28287 2.52462 4.7413 2.43597 5.205 2.42231C5.7975 2.42231 5.955 2.42231 7.5 2.42231C9.045 2.42231 9.2025 2.42231 9.795 2.42231C10.2587 2.43597 10.7171 2.52462 11.1525 2.68481C11.5244 2.82303 11.8603 3.04352 12.135 3.32981C12.4068 3.59888 12.6166 3.92391 12.75 4.28231C12.9102 4.71768 12.9988 5.17611 13.0125 5.63981C13.0125 6.23231 13.0125 6.38981 13.0125 7.93481C13.0125 9.47981 13.065 9.63731 13.0425 10.2298V10.2373ZM11.8425 4.65731C11.7532 4.41505 11.6124 4.19505 11.4298 4.01247C11.2473 3.8299 11.0273 3.68911 10.785 3.59981C10.4524 3.48451 10.102 3.42866 9.75 3.43481C9.165 3.43481 9 3.43481 7.5 3.43481C6 3.43481 5.835 3.43481 5.25 3.43481C4.8962 3.43827 4.5458 3.50429 4.215 3.62981C3.97645 3.71506 3.75877 3.8501 3.57644 4.02597C3.39411 4.20183 3.2513 4.41449 3.1575 4.64981C3.04858 4.98384 2.99537 5.33351 3 5.68481C3 6.26981 3 6.43481 3 7.93481C3 9.43481 3 9.59981 3 10.1848C3.00744 10.5382 3.07333 10.8879 3.195 11.2198C3.2843 11.4621 3.42509 11.6821 3.60766 11.8647C3.79023 12.0472 4.01024 12.188 4.2525 12.2773C4.5725 12.395 4.90924 12.4608 5.25 12.4723C5.835 12.4723 6 12.4723 7.5 12.4723C9 12.4723 9.165 12.4723 9.75 12.4723C10.1038 12.4689 10.4542 12.4028 10.785 12.2773C11.0273 12.188 11.2473 12.0472 11.4298 11.8647C11.6124 11.6821 11.7532 11.4621 11.8425 11.2198C11.968 10.889 12.034 10.5386 12.0375 10.1848C12.0375 9.59981 12.0375 9.43481 12.0375 7.93481C12.0375 6.43481 12.0375 6.26981 12.0375 5.68481C12.0377 5.33066 11.9716 4.97961 11.8425 4.64981V4.65731ZM7.5 10.7998C7.12412 10.7998 6.75192 10.7257 6.40475 10.5816C6.05757 10.4375 5.74223 10.2264 5.47679 9.96022C5.21134 9.69408 5.00102 9.37819 4.85786 9.03064C4.7147 8.68308 4.64151 8.3107 4.6425 7.93481C4.6425 7.36785 4.81072 6.81364 5.12586 6.34233C5.44101 5.87102 5.8889 5.50381 6.41285 5.28719C6.9368 5.07057 7.51324 5.01427 8.0692 5.12543C8.62516 5.23658 9.13564 5.51019 9.53601 5.91162C9.93639 6.31305 10.2087 6.82424 10.3184 7.38049C10.4281 7.93674 10.3703 8.51303 10.1523 9.03641C9.93426 9.55979 9.56588 10.0067 9.09375 10.3206C8.62161 10.6345 8.06696 10.8013 7.5 10.7998ZM10.5 5.63231C10.3342 5.61477 10.1808 5.53648 10.0693 5.41254C9.95775 5.2886 9.89605 5.12778 9.89605 4.96106C9.89605 4.79434 9.95775 4.63352 10.0693 4.50959C10.1808 4.38565 10.3342 4.30736 10.5 4.28981C10.6658 4.30736 10.8192 4.38565 10.9307 4.50959C11.0422 4.63352 11.1039 4.79434 11.1039 4.96106C11.1039 5.12778 11.0422 5.2886 10.9307 5.41254C10.8192 5.53648 10.6658 5.61477 10.5 5.63231Z" fill="black"/>
</svg>
