<svg width="15" height="16" viewBox="0 0 15 16" fill="none" xmlns="http://www.w3.org/2000/svg">
<path d="M0 2.17724C0 1.67218 0.168924 1.25551 0.506757 0.927239C0.84459 0.598951 1.28379 0.434814 1.82432 0.434814C2.35522 0.434814 2.78474 0.596421 3.11293 0.919663C3.45077 1.253 3.61969 1.68733 3.61969 2.22269C3.61969 2.70754 3.4556 3.11157 3.12741 3.43481C2.78958 3.76815 2.34556 3.93481 1.79537 3.93481H1.78089C1.25 3.93481 0.820468 3.76815 0.492278 3.43481C0.164088 3.10148 0 2.68228 0 2.17724ZM0.188224 15.4348V5.3136H3.40251V15.4348H0.188224ZM5.1834 15.4348H8.39768V9.7833C8.39768 9.42975 8.4363 9.15703 8.51351 8.96512C8.64864 8.62168 8.85376 8.33127 9.12886 8.09391C9.40396 7.85653 9.74903 7.73784 10.1641 7.73784C11.2452 7.73784 11.7857 8.50047 11.7857 10.0257V15.4348H15V9.63178C15 8.13683 14.6622 7.003 13.9865 6.23027C13.3108 5.45754 12.418 5.07118 11.3079 5.07118C10.0627 5.07118 9.09266 5.63178 8.39768 6.753V6.7833H8.3832L8.39768 6.753V5.3136H5.1834C5.2027 5.63683 5.21236 6.64188 5.21236 8.32875C5.21236 10.0156 5.2027 12.3843 5.1834 15.4348Z" fill="black"/>
</svg>
